<svg id="svg" version="1.1" xmlns="http://www.w3.org/2000/svg" xmlns:xlink="http://www.w3.org/1999/xlink" width="400" height="400" viewBox="0, 0, 400,400"><g id="svgg"><path id="path0" d="M23.427 27.096 C 22.562 27.184,21.412 27.604,20.873 28.029 C 20.333 28.453,19.491 28.800,19.000 28.800 C 18.509 28.800,17.679 29.135,17.154 29.545 C 16.629 29.955,15.819 30.409,15.353 30.555 C 14.887 30.701,14.184 31.176,13.791 31.610 C 13.398 32.045,12.816 32.400,12.498 32.400 C 11.935 32.400,8.198 35.946,7.400 37.238 C 6.162 39.242,4.780 41.165,4.416 41.390 C 4.187 41.531,4.000 42.062,4.000 42.570 C 4.000 43.077,3.663 43.921,3.251 44.446 C 2.839 44.971,2.366 46.390,2.201 47.600 C 1.809 50.471,1.360 51.600,0.610 51.600 C 0.065 51.600,0.000 64.272,0.000 171.000 C 0.000 277.728,0.065 290.400,0.610 290.400 C 1.360 290.400,1.800 291.528,2.170 294.398 C 2.326 295.607,2.689 296.867,2.976 297.198 C 3.264 297.529,3.711 298.461,3.970 299.268 C 4.229 300.075,4.702 300.952,5.020 301.217 C 5.339 301.482,5.600 301.985,5.600 302.335 C 5.600 303.008,5.861 303.310,9.455 306.800 C 10.701 308.010,12.119 309.405,12.606 309.900 C 13.093 310.395,13.758 310.800,14.084 310.800 C 14.410 310.800,14.993 311.150,15.379 311.577 C 15.766 312.005,16.649 312.478,17.341 312.629 C 18.034 312.781,19.029 313.241,19.554 313.652 C 20.079 314.063,21.159 314.406,21.954 314.414 C 22.749 314.421,24.120 314.775,25.000 315.200 C 26.565 315.956,28.407 315.973,109.726 315.986 C 166.237 315.996,193.100 316.133,193.626 316.414 C 194.712 316.995,194.852 361.491,193.771 362.571 C 193.209 363.134,189.327 363.200,157.036 363.200 L 120.929 363.200 119.501 364.300 C 115.873 367.095,117.342 372.488,121.937 373.245 C 124.685 373.698,275.328 373.673,278.100 373.219 C 282.959 372.423,284.317 367.090,280.398 364.198 L 279.045 363.200 243.199 363.200 C 212.879 363.200,207.233 363.113,206.576 362.632 C 205.471 361.824,205.122 317.735,206.213 316.644 C 206.801 316.056,214.115 316.000,290.340 316.000 C 364.983 316.000,373.915 315.935,374.704 315.382 C 375.190 315.042,376.535 314.664,377.693 314.542 C 378.852 314.419,380.288 313.978,380.884 313.560 C 381.480 313.142,382.210 312.800,382.506 312.800 C 382.802 312.800,383.655 312.350,384.400 311.800 C 385.145 311.250,385.970 310.800,386.232 310.800 C 386.867 310.800,394.400 303.245,394.400 302.608 C 394.400 302.333,394.749 301.664,395.175 301.122 C 395.602 300.580,396.079 299.611,396.236 298.968 C 396.393 298.326,396.855 297.371,397.261 296.846 C 397.667 296.321,398.001 295.331,398.002 294.646 C 398.006 292.698,398.772 290.400,399.419 290.400 C 399.926 290.400,400.000 275.175,400.000 171.200 C 400.000 88.142,399.873 52.000,399.580 52.000 C 398.959 52.000,398.135 49.715,397.824 47.133 C 397.669 45.851,397.323 44.779,397.026 44.665 C 396.737 44.555,396.385 43.844,396.243 43.087 C 396.101 42.329,395.628 41.387,395.192 40.993 C 394.756 40.599,394.400 40.047,394.400 39.767 C 394.400 39.486,394.175 39.015,393.900 38.719 C 393.625 38.423,392.777 37.375,392.015 36.390 C 391.253 35.406,390.468 34.533,390.270 34.452 C 390.073 34.370,389.539 33.875,389.083 33.352 C 388.628 32.828,388.089 32.400,387.886 32.400 C 387.682 32.400,386.981 31.950,386.327 31.400 C 385.673 30.850,384.787 30.400,384.357 30.400 C 383.927 30.400,383.471 30.129,383.344 29.798 C 383.217 29.467,382.400 29.082,381.529 28.942 C 380.659 28.803,379.670 28.413,379.332 28.075 C 378.994 27.737,377.881 27.323,376.859 27.154 C 375.002 26.848,26.405 26.790,23.427 27.096 M375.084 37.695 C 375.507 38.078,376.471 38.511,377.226 38.659 C 379.628 39.127,385.648 44.536,386.191 46.714 C 386.340 47.311,386.742 48.110,387.083 48.489 C 388.289 49.827,388.357 56.394,388.357 171.200 C 388.357 285.763,388.285 292.772,387.099 293.718 C 386.767 293.983,386.390 294.659,386.260 295.220 C 385.938 296.617,380.302 302.312,378.912 302.646 C 378.301 302.793,377.504 303.219,377.142 303.594 C 375.834 304.950,369.468 305.000,200.000 304.996 C 31.475 304.991,24.537 304.937,23.000 303.600 C 22.560 303.218,21.710 302.789,21.112 302.648 C 20.513 302.506,19.832 302.033,19.597 301.595 C 19.363 301.158,18.984 300.800,18.755 300.800 C 18.396 300.800,17.522 299.949,14.649 296.800 C 14.348 296.470,13.967 295.750,13.803 295.200 C 13.639 294.650,13.248 293.906,12.933 293.547 C 11.698 292.137,11.614 284.361,11.614 171.000 C 11.614 57.482,11.697 49.854,12.940 48.453 C 13.259 48.094,13.792 47.142,14.124 46.337 C 14.818 44.657,18.806 40.400,19.686 40.400 C 20.011 40.400,20.602 40.040,21.000 39.600 C 21.398 39.160,22.106 38.800,22.573 38.800 C 23.040 38.800,23.862 38.492,24.400 38.115 C 24.938 37.738,26.103 37.310,26.989 37.163 C 31.274 36.454,374.291 36.978,375.084 37.695 M229.000 101.888 C 228.560 101.995,227.930 102.320,227.600 102.610 C 227.270 102.900,226.460 103.270,225.800 103.431 C 224.224 103.817,217.699 110.389,217.392 111.900 C 217.270 112.505,216.816 113.666,216.385 114.479 C 215.756 115.664,215.600 116.754,215.600 119.957 C 215.600 125.085,215.289 125.502,209.344 128.342 C 208.433 128.778,207.576 129.315,207.439 129.536 C 207.303 129.757,206.641 130.059,205.968 130.207 C 205.296 130.355,204.654 130.714,204.542 131.007 C 204.430 131.299,203.677 131.825,202.869 132.176 C 202.061 132.527,200.680 133.265,199.800 133.816 C 198.920 134.367,197.750 135.032,197.200 135.293 C 196.650 135.554,195.771 136.090,195.246 136.484 C 194.721 136.878,194.027 137.200,193.704 137.200 C 193.380 137.200,192.581 137.650,191.927 138.200 C 191.273 138.750,190.510 139.200,190.231 139.200 C 189.952 139.200,189.398 139.560,189.000 140.000 C 188.602 140.440,187.944 140.800,187.538 140.800 C 187.132 140.800,186.445 141.155,186.010 141.590 C 185.576 142.024,184.779 142.490,184.240 142.626 C 183.700 142.761,182.948 143.216,182.567 143.636 C 182.187 144.056,181.570 144.400,181.196 144.400 C 180.823 144.400,180.031 144.850,179.438 145.400 C 178.844 145.950,178.019 146.400,177.603 146.400 C 177.187 146.400,176.723 146.600,176.572 146.845 C 176.421 147.090,175.510 147.639,174.548 148.064 C 173.587 148.489,172.800 149.009,172.800 149.219 C 172.800 149.428,172.554 149.600,172.254 149.600 C 171.954 149.600,171.279 149.931,170.754 150.336 C 169.162 151.565,168.020 151.660,167.057 150.644 C 166.586 150.147,165.885 149.624,165.500 149.483 C 165.115 149.341,164.800 149.054,164.800 148.844 C 164.800 148.635,164.268 148.347,163.619 148.204 C 162.969 148.061,162.012 147.610,161.491 147.200 C 159.344 145.511,149.280 145.515,145.785 147.207 C 144.884 147.643,143.946 148.000,143.699 148.000 C 143.126 148.000,137.681 153.231,136.970 154.465 C 133.964 159.684,132.882 166.824,134.596 170.128 C 134.887 170.688,135.255 171.743,135.414 172.473 C 135.574 173.203,136.041 174.229,136.452 174.754 C 136.863 175.279,137.200 175.934,137.200 176.210 C 137.200 176.879,141.438 181.095,142.424 181.408 C 142.851 181.543,143.200 181.822,143.200 182.027 C 143.200 182.232,143.439 182.400,143.732 182.400 C 144.025 182.400,145.150 182.878,146.232 183.463 C 149.059 184.990,158.724 185.147,160.568 183.697 C 161.195 183.204,162.009 182.800,162.376 182.800 C 162.744 182.800,163.655 182.350,164.400 181.800 C 165.145 181.250,165.947 180.800,166.181 180.800 C 166.416 180.800,166.832 180.440,167.107 180.000 C 167.390 179.548,168.040 179.200,168.603 179.200 C 169.152 179.200,169.960 179.560,170.400 180.000 C 170.840 180.440,171.425 180.801,171.700 180.801 C 171.975 180.802,172.830 181.198,173.600 181.680 C 175.636 182.955,177.225 183.848,178.700 184.545 C 179.415 184.883,180.000 185.341,180.000 185.564 C 180.000 185.787,180.701 186.158,181.559 186.389 C 182.416 186.620,183.214 187.060,183.332 187.367 C 183.450 187.673,184.096 188.045,184.768 188.193 C 185.441 188.341,186.103 188.643,186.239 188.864 C 186.376 189.085,187.233 189.619,188.144 190.050 C 191.019 191.412,192.191 192.105,192.502 192.629 C 192.669 192.909,193.342 193.255,193.998 193.400 C 194.654 193.544,195.303 193.843,195.439 194.064 C 195.576 194.285,196.433 194.819,197.344 195.250 C 198.255 195.681,199.720 196.475,200.600 197.014 C 201.480 197.553,202.754 198.255,203.432 198.574 C 204.109 198.893,204.896 199.434,205.181 199.777 C 205.465 200.120,206.027 200.400,206.428 200.400 C 206.830 200.400,207.644 200.850,208.238 201.400 C 208.831 201.950,209.644 202.400,210.043 202.400 C 210.442 202.400,211.091 202.729,211.484 203.131 C 211.878 203.532,212.800 204.100,213.534 204.393 C 215.280 205.089,215.600 206.069,215.601 210.726 C 215.603 213.771,215.759 214.857,216.334 215.800 C 216.736 216.460,217.196 217.525,217.356 218.166 C 218.088 221.087,223.952 226.720,227.000 227.428 C 227.660 227.582,228.523 227.988,228.918 228.332 C 230.132 229.388,239.700 229.183,241.785 228.056 C 242.656 227.585,243.600 227.200,243.881 227.200 C 244.430 227.200,247.283 225.126,248.894 223.557 C 250.144 222.339,252.779 218.379,253.593 216.494 C 254.666 214.011,254.345 202.060,253.196 201.668 C 252.983 201.596,252.443 200.786,251.996 199.868 C 250.833 197.485,250.331 196.716,249.204 195.593 C 247.946 194.338,245.141 192.417,244.554 192.407 C 244.309 192.403,243.593 191.995,242.963 191.500 C 241.203 190.116,228.795 190.116,227.036 191.500 C 226.407 191.995,225.659 192.400,225.375 192.400 C 225.090 192.400,224.619 192.632,224.329 192.914 C 222.036 195.146,219.613 196.192,219.007 195.211 C 218.875 194.998,218.009 194.462,217.083 194.021 C 216.158 193.581,215.085 193.035,214.700 192.810 C 213.071 191.856,212.528 191.559,211.200 190.898 C 210.430 190.514,209.664 189.989,209.497 189.730 C 209.330 189.472,208.565 189.053,207.797 188.799 C 207.029 188.545,206.400 188.191,206.400 188.012 C 206.400 187.833,205.636 187.381,204.701 187.007 C 203.767 186.633,202.912 186.203,202.801 186.050 C 202.691 185.897,201.370 185.149,199.867 184.387 C 198.364 183.626,196.947 182.777,196.718 182.501 C 196.489 182.226,196.068 182.000,195.782 182.000 C 195.496 182.000,194.727 181.550,194.073 181.000 C 193.419 180.450,192.630 180.000,192.319 180.000 C 192.008 180.000,191.404 179.730,190.976 179.400 C 190.549 179.070,189.480 178.436,188.600 177.991 C 186.302 176.829,185.305 176.219,184.471 175.464 C 184.067 175.099,183.450 174.800,183.099 174.800 C 182.748 174.800,181.927 174.350,181.273 173.800 C 180.619 173.250,179.795 172.800,179.442 172.800 C 179.089 172.800,178.461 172.461,178.046 172.046 C 177.632 171.632,176.668 171.087,175.905 170.835 C 172.800 169.810,172.517 160.483,175.569 159.725 C 176.136 159.584,177.095 159.138,177.700 158.734 C 180.503 156.863,181.084 156.522,182.300 156.029 C 183.015 155.740,183.600 155.348,183.600 155.159 C 183.600 154.970,184.095 154.694,184.700 154.547 C 185.305 154.399,186.309 153.856,186.931 153.339 C 187.553 152.823,188.386 152.400,188.782 152.400 C 189.178 152.400,189.735 152.120,190.019 151.777 C 190.304 151.434,191.091 150.888,191.768 150.563 C 192.446 150.238,193.720 149.531,194.600 148.992 C 195.480 148.453,196.965 147.655,197.900 147.220 C 198.835 146.785,199.600 146.242,199.600 146.014 C 199.600 145.786,199.936 145.600,200.346 145.600 C 200.756 145.600,201.524 145.260,202.053 144.844 C 202.581 144.429,203.640 143.797,204.407 143.441 C 205.173 143.086,206.520 142.355,207.400 141.818 C 208.280 141.281,209.426 140.648,209.947 140.413 C 210.468 140.177,211.347 139.628,211.901 139.192 C 212.455 138.756,213.173 138.400,213.496 138.400 C 213.820 138.400,214.619 137.950,215.273 137.400 C 215.927 136.850,216.768 136.400,217.142 136.400 C 217.516 136.400,218.130 136.040,218.507 135.600 C 219.774 134.121,221.363 134.651,224.197 137.500 C 224.689 137.995,225.452 138.400,225.892 138.400 C 226.332 138.400,227.207 138.805,227.836 139.300 C 228.908 140.143,229.363 140.200,235.000 140.200 C 240.637 140.200,241.092 140.143,242.164 139.300 C 242.793 138.805,243.573 138.400,243.896 138.400 C 244.220 138.400,245.000 137.995,245.629 137.500 C 246.259 137.005,247.475 136.060,248.332 135.400 C 249.812 134.260,250.693 133.152,251.965 130.831 C 252.275 130.264,252.681 129.530,252.866 129.200 C 253.991 127.193,254.136 126.230,254.136 120.800 C 254.136 115.196,253.980 114.254,252.706 112.200 C 250.301 108.322,249.442 107.114,248.960 106.929 C 248.652 106.811,248.400 106.464,248.400 106.157 C 248.400 105.851,248.144 105.600,247.831 105.600 C 247.518 105.600,246.727 105.150,246.073 104.600 C 245.419 104.050,244.676 103.600,244.421 103.600 C 244.166 103.600,243.295 103.150,242.486 102.600 C 241.048 101.623,232.040 101.147,229.000 101.888 M239.800 113.249 C 240.900 114.026,242.009 115.078,242.264 115.585 C 242.519 116.093,242.969 116.657,243.264 116.839 C 245.607 118.287,242.860 127.688,239.923 128.275 C 239.328 128.394,238.534 128.831,238.158 129.246 C 237.165 130.344,232.908 130.315,231.491 129.200 C 230.931 128.760,230.310 128.400,230.111 128.400 C 229.617 128.400,227.202 125.638,227.191 125.061 C 227.186 124.808,226.830 124.150,226.400 123.600 C 225.888 122.945,225.618 121.979,225.618 120.800 C 225.618 119.621,225.888 118.655,226.400 118.000 C 226.830 117.450,227.186 116.802,227.191 116.559 C 227.204 115.903,229.413 113.713,230.368 113.410 C 230.826 113.265,231.200 112.972,231.200 112.760 C 231.200 111.020,237.121 111.357,239.800 113.249 M158.268 157.420 C 161.573 159.663,162.200 160.904,162.200 165.197 L 162.200 169.021 160.652 170.911 C 159.800 171.950,158.880 172.800,158.606 172.800 C 158.332 172.800,157.650 173.160,157.091 173.600 C 154.239 175.844,145.689 172.567,145.609 169.200 C 145.601 168.870,145.326 168.084,144.998 167.454 C 144.341 166.195,144.195 163.774,144.755 163.428 C 144.950 163.307,145.221 162.613,145.358 161.885 C 145.582 160.687,146.440 159.712,149.580 157.085 C 151.268 155.673,155.960 155.854,158.268 157.420 M239.838 201.831 C 243.661 204.553,245.388 210.326,243.246 213.224 C 242.781 213.853,242.400 214.541,242.400 214.753 C 242.400 215.177,241.029 216.308,238.682 217.821 C 235.372 219.956,227.200 217.154,227.200 213.885 C 227.200 213.688,226.840 213.069,226.400 212.509 C 225.357 211.184,225.312 208.091,226.316 206.754 C 226.710 206.229,227.238 205.322,227.490 204.738 C 227.742 204.154,228.427 203.344,229.012 202.938 C 229.597 202.532,230.405 201.899,230.806 201.532 C 232.498 199.984,237.475 200.149,239.838 201.831 " stroke="none" fill="#060606" fill-rule="evenodd"></path><path id="path1" d="M0.000 23.600 C 0.000 43.302,0.090 47.200,0.547 47.200 C 0.887 47.200,1.179 46.569,1.318 45.539 C 1.440 44.625,1.914 43.372,2.370 42.755 C 2.827 42.137,3.200 41.383,3.200 41.078 C 3.200 40.774,3.650 40.001,4.200 39.362 C 4.749 38.723,5.199 38.044,5.200 37.853 C 5.200 37.662,5.920 36.808,6.800 35.954 C 7.680 35.100,8.400 34.221,8.400 34.000 C 8.400 33.780,8.581 33.600,8.803 33.600 C 9.024 33.600,9.597 33.150,10.075 32.600 C 10.553 32.050,11.173 31.600,11.452 31.600 C 11.732 31.600,12.129 31.299,12.334 30.932 C 12.706 30.268,14.113 29.408,16.800 28.203 C 17.570 27.857,18.650 27.333,19.200 27.038 C 19.750 26.742,21.062 26.376,22.115 26.223 C 23.169 26.071,24.648 25.688,25.402 25.373 C 27.945 24.311,372.672 24.534,375.704 25.600 C 376.956 26.040,378.512 26.400,379.161 26.400 C 379.811 26.400,380.581 26.632,380.871 26.915 C 381.162 27.198,382.255 27.753,383.300 28.148 C 384.345 28.543,385.200 29.012,385.200 29.190 C 385.200 29.368,385.605 29.618,386.100 29.746 C 386.595 29.873,387.788 30.703,388.751 31.589 C 389.713 32.475,390.613 33.204,390.751 33.208 C 390.888 33.213,391.540 33.854,392.200 34.632 C 392.860 35.411,393.805 36.429,394.300 36.896 C 394.795 37.362,395.200 37.904,395.200 38.099 C 395.200 38.294,395.650 39.043,396.200 39.764 C 396.750 40.486,397.200 41.351,397.200 41.689 C 397.200 42.026,397.458 42.517,397.774 42.779 C 398.090 43.041,398.464 43.828,398.604 44.528 C 399.807 50.517,400.000 47.627,400.000 23.600 L 400.000 0.000 200.000 0.000 L 0.000 0.000 0.000 23.600 M26.200 39.086 C 21.459 40.287,20.241 41.076,16.747 45.209 C 15.728 46.414,14.772 47.973,14.622 48.672 C 14.471 49.372,14.090 50.159,13.774 50.421 C 12.711 51.303,12.933 290.343,13.999 292.090 C 14.438 292.811,14.798 293.637,14.799 293.927 C 14.799 294.216,15.250 295.043,15.800 295.764 C 16.350 296.486,16.800 297.284,16.800 297.538 C 16.800 297.792,16.954 298.000,17.142 298.000 C 17.329 298.000,17.945 298.405,18.509 298.900 C 20.890 300.990,21.689 301.600,22.047 301.600 C 22.256 301.600,23.315 302.050,24.400 302.600 L 26.373 303.600 200.011 303.600 L 373.650 303.600 375.925 302.576 C 377.176 302.012,378.470 301.377,378.800 301.164 C 379.130 300.951,379.894 300.467,380.497 300.089 C 381.101 299.710,381.596 299.187,381.597 298.927 C 381.599 298.667,381.960 298.340,382.400 298.200 C 382.840 298.060,383.200 297.792,383.200 297.604 C 383.200 297.415,383.638 296.740,384.174 296.104 C 384.710 295.467,385.274 294.418,385.428 293.773 C 385.582 293.128,385.998 292.266,386.354 291.858 C 386.945 291.179,387.009 280.987,387.102 171.737 L 387.204 52.359 386.202 50.241 C 385.651 49.076,385.200 47.915,385.200 47.661 C 385.200 46.765,379.834 41.200,378.970 41.200 C 378.642 41.200,378.273 40.935,378.149 40.611 C 378.024 40.287,377.265 39.913,376.461 39.780 C 375.658 39.647,374.203 39.282,373.229 38.969 C 370.456 38.078,29.721 38.193,26.200 39.086 M239.054 100.198 C 239.684 100.526,240.687 100.796,241.281 100.798 C 242.482 100.800,244.400 101.560,244.400 102.032 C 244.400 102.200,244.949 102.457,245.619 102.604 C 246.290 102.751,247.053 103.216,247.315 103.636 C 247.578 104.056,247.976 104.400,248.200 104.400 C 248.424 104.400,249.235 105.120,250.003 105.999 C 250.772 106.879,251.805 108.058,252.300 108.620 C 252.795 109.182,253.200 109.829,253.200 110.058 C 253.200 110.286,253.560 110.931,254.000 111.491 C 254.440 112.050,254.800 112.914,254.800 113.410 C 254.800 113.907,255.156 115.097,255.591 116.056 C 256.678 118.452,256.704 123.497,255.640 125.774 C 255.222 126.668,254.767 128.058,254.629 128.861 C 254.491 129.665,254.113 130.424,253.789 130.549 C 253.465 130.673,253.200 131.122,253.200 131.545 C 253.200 131.969,252.753 132.740,252.207 133.258 C 251.661 133.776,251.211 134.431,251.207 134.713 C 251.203 134.994,250.912 135.336,250.560 135.471 C 250.208 135.606,249.443 136.153,248.860 136.686 C 247.092 138.304,246.670 138.614,244.800 139.680 C 243.810 140.243,242.190 140.838,241.200 141.000 C 240.210 141.162,238.914 141.543,238.320 141.847 C 236.917 142.565,233.545 142.555,231.802 141.827 C 231.048 141.512,229.612 141.131,228.611 140.981 C 227.610 140.831,226.359 140.369,225.832 139.954 C 225.305 139.539,224.701 139.200,224.491 139.200 C 224.280 139.200,223.643 138.834,223.074 138.387 C 220.956 136.721,220.039 136.427,218.867 137.038 C 218.280 137.344,217.575 137.596,217.300 137.598 C 217.025 137.599,216.800 137.789,216.800 138.020 C 216.800 138.252,216.125 138.720,215.300 139.060 C 214.475 139.401,213.530 139.910,213.200 140.193 C 212.870 140.475,212.177 140.834,211.661 140.992 C 211.144 141.150,210.379 141.621,209.961 142.039 C 209.542 142.458,208.868 142.800,208.462 142.800 C 208.056 142.800,207.398 143.160,207.000 143.600 C 206.602 144.040,206.069 144.400,205.816 144.400 C 205.563 144.400,204.745 144.850,204.000 145.400 C 203.255 145.950,202.328 146.400,201.942 146.400 C 201.556 146.400,201.096 146.651,200.920 146.957 C 200.744 147.263,199.970 147.815,199.200 148.182 C 196.611 149.418,194.604 150.551,194.071 151.077 C 193.781 151.365,193.321 151.600,193.049 151.600 C 192.778 151.600,191.945 152.050,191.200 152.600 C 190.455 153.150,189.610 153.600,189.322 153.600 C 189.035 153.600,188.440 153.960,188.000 154.400 C 187.560 154.840,186.834 155.200,186.387 155.200 C 185.941 155.200,185.475 155.461,185.352 155.781 C 185.230 156.100,184.494 156.571,183.718 156.827 C 182.942 157.083,181.968 157.632,181.554 158.046 C 181.139 158.461,180.558 158.800,180.262 158.800 C 179.966 158.800,179.398 159.160,179.000 159.600 C 178.602 160.040,177.968 160.400,177.592 160.400 C 173.216 160.400,173.717 168.921,178.180 170.393 C 178.961 170.651,179.600 170.993,179.600 171.154 C 179.600 171.315,180.320 171.764,181.200 172.152 C 182.080 172.540,182.800 173.025,182.800 173.229 C 182.800 173.433,183.160 173.600,183.600 173.600 C 184.040 173.600,184.742 173.942,185.161 174.361 C 185.579 174.779,186.344 175.249,186.861 175.406 C 187.377 175.563,188.160 176.011,188.600 176.400 C 189.040 176.789,189.850 177.244,190.400 177.409 C 190.950 177.575,191.829 178.045,192.354 178.455 C 192.879 178.865,193.526 179.200,193.792 179.200 C 194.058 179.200,194.602 179.560,195.000 180.000 C 195.398 180.440,196.056 180.800,196.462 180.800 C 196.868 180.800,197.555 181.155,197.990 181.590 C 198.424 182.024,199.221 182.490,199.760 182.626 C 200.300 182.761,201.052 183.216,201.433 183.636 C 201.813 184.056,202.430 184.400,202.804 184.400 C 203.177 184.400,203.969 184.850,204.562 185.400 C 205.156 185.950,205.970 186.400,206.372 186.400 C 206.773 186.400,207.339 186.685,207.628 187.034 C 207.918 187.383,208.840 187.943,209.677 188.278 C 210.515 188.613,211.200 189.028,211.200 189.200 C 211.200 189.372,211.617 189.618,212.126 189.746 C 212.636 189.874,213.473 190.343,213.987 190.789 C 214.502 191.235,215.198 191.600,215.535 191.600 C 215.873 191.600,216.547 191.975,217.035 192.433 C 218.465 193.776,221.010 193.920,222.320 192.731 C 222.914 192.192,223.850 191.530,224.400 191.260 C 224.950 190.989,225.850 190.508,226.400 190.190 C 226.950 189.872,227.850 189.603,228.400 189.593 C 228.950 189.583,229.749 189.310,230.176 188.987 C 231.273 188.158,238.727 188.158,239.824 188.987 C 240.251 189.310,241.050 189.581,241.600 189.588 C 242.150 189.595,243.230 189.948,244.000 190.373 C 244.770 190.797,245.800 191.331,246.289 191.558 C 247.665 192.199,252.771 197.545,253.043 198.631 C 253.177 199.164,253.418 199.600,253.579 199.600 C 254.009 199.600,254.800 201.498,254.800 202.530 C 254.800 203.021,255.115 203.867,255.500 204.411 C 256.059 205.201,256.200 206.243,256.200 209.600 C 256.200 212.957,256.059 213.999,255.500 214.789 C 255.115 215.333,254.800 216.254,254.800 216.835 C 254.800 217.416,254.465 218.321,254.055 218.846 C 253.645 219.371,253.186 220.197,253.034 220.681 C 252.701 221.744,248.334 226.400,247.670 226.400 C 247.412 226.400,247.200 226.583,247.200 226.806 C 247.200 227.030,246.525 227.518,245.700 227.891 C 244.875 228.263,243.918 228.798,243.573 229.080 C 242.990 229.556,240.144 230.160,236.090 230.668 C 232.624 231.102,225.483 229.066,223.187 226.988 C 222.830 226.665,222.363 226.400,222.150 226.400 C 221.367 226.400,216.400 220.487,216.400 219.555 C 216.400 219.284,216.118 218.751,215.773 218.371 C 215.031 217.551,213.905 212.313,213.802 209.200 C 213.706 206.288,213.419 205.749,211.457 204.786 C 209.670 203.908,207.926 202.934,205.400 201.404 C 204.520 200.870,203.035 200.073,202.100 199.631 C 201.165 199.190,200.400 198.642,200.400 198.414 C 200.400 198.186,200.064 198.000,199.654 198.000 C 199.244 198.000,198.476 197.660,197.947 197.244 C 197.419 196.829,196.360 196.192,195.593 195.829 C 192.623 194.421,191.200 193.579,191.200 193.229 C 191.200 193.028,190.679 192.749,190.041 192.609 C 189.404 192.469,188.566 192.005,188.179 191.577 C 187.793 191.150,187.179 190.800,186.816 190.800 C 186.453 190.800,185.545 190.350,184.800 189.800 C 184.055 189.250,183.237 188.800,182.983 188.800 C 182.730 188.800,182.107 188.440,181.600 188.000 C 181.093 187.560,180.442 187.200,180.154 187.200 C 179.867 187.200,179.309 186.862,178.916 186.450 C 178.522 186.037,177.750 185.562,177.200 185.395 C 176.650 185.227,175.771 184.755,175.246 184.345 C 174.721 183.935,174.074 183.600,173.808 183.600 C 173.542 183.600,172.998 183.240,172.600 182.800 C 172.202 182.360,171.672 182.000,171.423 182.000 C 171.173 182.000,170.317 181.668,169.521 181.262 C 168.196 180.586,168.021 180.578,167.473 181.162 C 165.645 183.108,160.738 185.596,158.724 185.598 C 157.912 185.599,157.144 185.767,157.017 185.972 C 156.562 186.709,152.571 186.917,151.146 186.277 C 150.406 185.945,149.046 185.586,148.124 185.478 C 146.207 185.254,142.026 183.333,141.720 182.535 C 141.607 182.241,141.296 182.000,141.028 182.000 C 140.413 182.000,136.400 177.994,136.400 177.380 C 136.400 177.129,136.050 176.607,135.623 176.221 C 135.195 175.834,134.723 174.951,134.572 174.259 C 134.422 173.566,134.129 172.891,133.921 172.759 C 132.461 171.828,132.447 158.580,133.905 157.651 C 134.122 157.513,134.428 156.806,134.586 156.081 C 134.743 155.355,135.216 154.547,135.636 154.285 C 136.056 154.022,136.400 153.529,136.400 153.190 C 136.400 152.413,141.390 147.669,143.000 146.914 C 143.660 146.605,144.650 146.095,145.200 145.782 C 145.750 145.468,146.614 145.209,147.120 145.206 C 147.626 145.203,148.608 144.906,149.302 144.547 C 150.996 143.671,156.058 143.672,158.149 144.550 C 159.001 144.907,159.991 145.203,160.349 145.206 C 160.707 145.209,161.450 145.470,162.000 145.786 C 162.550 146.102,163.661 146.653,164.469 147.011 C 165.277 147.369,166.037 147.918,166.157 148.231 C 166.277 148.544,166.636 148.800,166.954 148.800 C 167.273 148.800,167.600 148.999,167.681 149.242 C 167.888 149.863,170.991 148.894,171.856 147.939 C 172.223 147.532,172.742 147.200,173.008 147.200 C 173.274 147.200,173.936 146.851,174.478 146.425 C 175.020 145.998,175.931 145.532,176.502 145.389 C 177.074 145.245,177.852 144.784,178.233 144.364 C 178.613 143.944,179.228 143.600,179.600 143.600 C 179.972 143.600,180.593 143.250,180.979 142.823 C 181.366 142.395,182.223 141.927,182.882 141.782 C 183.542 141.637,184.378 141.256,184.741 140.934 C 185.887 139.918,188.415 138.400,188.959 138.400 C 189.247 138.400,189.969 137.950,190.562 137.400 C 191.156 136.850,191.964 136.400,192.359 136.400 C 192.753 136.400,193.393 136.050,193.779 135.623 C 194.166 135.195,195.004 134.731,195.641 134.591 C 196.279 134.451,196.800 134.164,196.800 133.954 C 196.800 133.744,197.565 133.215,198.500 132.780 C 199.435 132.345,200.920 131.547,201.800 131.008 C 202.680 130.469,204.011 129.738,204.758 129.384 C 205.505 129.030,206.373 128.484,206.687 128.170 C 207.001 127.857,207.490 127.600,207.775 127.600 C 208.059 127.600,208.721 127.265,209.246 126.855 C 209.771 126.445,210.643 125.971,211.185 125.801 C 212.851 125.279,213.738 123.738,213.811 121.244 C 213.903 118.117,215.022 112.859,215.773 112.029 C 216.118 111.649,216.400 111.110,216.400 110.832 C 216.400 109.459,222.767 102.959,224.480 102.582 C 225.096 102.447,225.600 102.200,225.600 102.032 C 225.600 101.606,227.463 100.804,228.519 100.777 C 229.003 100.765,230.030 100.516,230.800 100.225 C 232.785 99.474,237.636 99.458,239.054 100.198 M233.600 113.169 C 233.600 113.372,232.925 113.761,232.101 114.033 C 228.673 115.164,227.057 118.758,227.993 123.168 C 228.303 124.628,228.717 125.600,229.028 125.600 C 229.313 125.600,229.657 125.950,229.793 126.377 C 230.266 127.868,234.648 128.740,237.417 127.894 C 241.338 126.696,244.179 121.176,242.213 118.576 C 241.890 118.149,241.620 117.529,241.613 117.199 C 241.595 116.359,239.670 114.662,238.000 114.015 C 237.230 113.716,236.429 113.321,236.220 113.136 C 235.705 112.681,233.600 112.708,233.600 113.169 M150.800 158.245 C 142.304 162.137,146.505 174.582,155.579 172.405 C 157.429 171.961,159.600 170.491,159.600 169.681 C 159.600 169.485,159.960 168.998,160.400 168.600 C 162.347 166.838,160.283 158.857,157.862 158.786 C 157.608 158.779,156.680 158.425,155.800 158.000 C 153.759 157.014,153.453 157.029,150.800 158.245 M232.143 202.554 C 227.196 205.079,225.996 211.438,229.790 215.017 C 232.030 217.129,238.266 217.509,239.549 215.612 C 239.851 215.165,240.346 214.800,240.649 214.800 C 240.952 214.800,241.200 214.568,241.200 214.285 C 241.200 214.001,241.560 213.063,242.000 212.200 C 242.947 210.343,243.042 207.899,242.200 207.057 C 241.870 206.727,241.600 206.208,241.600 205.903 C 241.600 203.178,235.296 200.945,232.143 202.554 M0.000 347.400 L 0.000 400.000 200.000 400.000 L 400.000 400.000 400.000 347.400 C 400.000 316.485,399.852 294.800,399.640 294.800 C 399.442 294.800,399.066 295.691,398.805 296.780 C 398.543 297.869,398.076 298.971,397.765 299.229 C 397.454 299.487,397.200 300.022,397.200 300.418 C 397.200 300.814,396.750 301.673,396.200 302.327 C 395.650 302.981,395.200 303.708,395.200 303.944 C 395.200 304.179,394.840 304.565,394.400 304.800 C 393.960 305.035,393.600 305.467,393.600 305.759 C 393.600 306.217,392.290 307.534,388.544 310.844 C 388.073 311.260,387.559 311.600,387.401 311.600 C 387.244 311.600,386.581 312.050,385.927 312.600 C 385.273 313.150,384.466 313.600,384.132 313.600 C 383.799 313.600,383.069 313.960,382.509 314.400 C 381.950 314.840,381.111 315.201,380.646 315.202 C 380.181 315.204,379.260 315.519,378.600 315.902 C 377.472 316.558,372.291 316.612,292.200 316.800 L 207.000 317.000 206.889 338.600 C 206.828 350.480,206.877 360.605,206.997 361.100 L 207.215 362.000 242.910 362.000 C 279.338 362.000,280.446 362.046,282.008 363.608 C 283.246 364.846,284.522 368.594,284.014 369.500 C 283.797 369.885,283.373 370.832,283.071 371.603 C 282.666 372.638,281.954 373.321,280.361 374.203 L 278.200 375.400 200.000 375.400 L 121.800 375.400 120.138 374.511 C 115.694 372.135,114.867 367.325,118.262 363.600 L 119.538 362.200 156.372 362.092 L 193.207 361.984 193.103 339.492 L 193.000 317.000 107.800 316.800 C 29.764 316.617,22.516 316.545,21.600 315.945 C 21.050 315.585,19.916 315.170,19.079 315.023 C 18.242 314.876,17.465 314.513,17.351 314.217 C 17.238 313.921,16.552 313.567,15.827 313.431 C 15.103 313.296,14.187 312.828,13.793 312.392 C 13.399 311.956,12.898 311.600,12.680 311.600 C 12.462 311.600,11.905 311.240,11.442 310.800 C 6.741 306.334,4.800 304.146,4.800 303.314 C 4.800 303.031,4.614 302.800,4.386 302.800 C 4.158 302.800,3.633 302.010,3.219 301.044 C 2.805 300.078,2.277 299.171,2.045 299.028 C 1.813 298.884,1.505 297.875,1.360 296.784 C 1.190 295.498,0.904 294.800,0.548 294.800 C 0.087 294.800,0.000 303.108,0.000 347.400 " stroke="none" fill="#fbfbfb" fill-rule="evenodd"></path><path id="path2" d="M114.100 25.900 C 161.345 25.956,238.655 25.956,285.900 25.900 C 333.145 25.844,294.490 25.798,200.000 25.798 C 105.510 25.798,66.855 25.844,114.100 25.900 M26.100 26.276 C 26.485 26.376,27.115 26.376,27.500 26.276 C 27.885 26.175,27.570 26.093,26.800 26.093 C 26.030 26.093,25.715 26.175,26.100 26.276 M372.500 26.276 C 372.885 26.376,373.515 26.376,373.900 26.276 C 374.285 26.175,373.970 26.093,373.200 26.093 C 372.430 26.093,372.115 26.175,372.500 26.276 M382.000 42.600 C 382.746 43.370,383.447 44.000,383.557 44.000 C 383.667 44.000,383.146 43.370,382.400 42.600 C 381.654 41.830,380.953 41.200,380.843 41.200 C 380.733 41.200,381.254 41.830,382.000 42.600 M398.892 49.275 C 399.091 49.873,400.000 50.202,400.000 49.676 C 400.000 49.461,399.715 49.176,399.367 49.043 C 398.977 48.893,398.794 48.982,398.892 49.275 M0.000 49.600 C 0.000 49.820,0.270 50.000,0.600 50.000 C 0.930 50.000,1.200 49.820,1.200 49.600 C 1.200 49.380,0.930 49.200,0.600 49.200 C 0.270 49.200,0.000 49.380,0.000 49.600 M387.797 171.400 C 387.797 235.200,387.844 261.240,387.900 229.268 C 387.956 197.295,387.956 145.095,387.900 113.268 C 387.844 81.440,387.797 107.600,387.797 171.400 M234.100 100.687 C 234.705 100.778,235.695 100.778,236.300 100.687 C 236.905 100.595,236.410 100.520,235.200 100.520 C 233.990 100.520,233.495 100.595,234.100 100.687 M220.185 106.900 L 218.200 109.000 220.300 107.015 C 222.251 105.171,222.583 104.800,222.285 104.800 C 222.222 104.800,221.277 105.745,220.185 106.900 M231.400 113.200 C 229.836 114.236,230.392 114.237,232.090 113.201 C 232.811 112.762,233.220 112.404,233.000 112.404 C 232.780 112.405,232.060 112.763,231.400 113.200 M214.893 118.000 C 214.893 118.770,214.975 119.085,215.076 118.700 C 215.176 118.315,215.176 117.685,215.076 117.300 C 214.975 116.915,214.893 117.230,214.893 118.000 M255.000 120.800 C 255.000 122.738,255.132 124.116,255.294 123.862 C 255.456 123.608,255.588 122.230,255.588 120.800 C 255.588 119.370,255.456 117.992,255.294 117.738 C 255.132 117.484,255.000 118.862,255.000 120.800 M243.328 120.800 C 243.328 122.230,243.401 122.815,243.489 122.100 C 243.578 121.385,243.578 120.215,243.489 119.500 C 243.401 118.785,243.328 119.370,243.328 120.800 M227.600 125.064 C 227.600 125.282,228.095 125.897,228.700 126.430 L 229.800 127.400 228.800 126.200 C 228.250 125.540,227.755 124.925,227.700 124.833 C 227.645 124.742,227.600 124.845,227.600 125.064 M232.400 128.958 C 232.950 129.296,234.210 129.553,235.200 129.530 L 237.000 129.487 235.000 129.208 C 233.900 129.054,232.640 128.797,232.200 128.637 C 231.693 128.452,231.766 128.569,232.400 128.958 M200.200 132.610 C 199.320 133.152,198.759 133.597,198.953 133.598 C 199.363 133.600,202.000 132.016,202.000 131.767 C 202.000 131.513,201.921 131.551,200.200 132.610 M220.800 136.020 C 222.187 136.961,222.978 137.235,222.000 136.436 C 221.450 135.986,220.820 135.617,220.600 135.615 C 220.380 135.613,220.470 135.796,220.800 136.020 M242.800 139.636 C 242.136 140.179,242.069 140.315,242.600 140.040 C 243.905 139.366,244.628 138.812,244.200 138.815 C 243.980 138.817,243.350 139.186,242.800 139.636 M233.511 141.093 C 234.451 141.178,235.891 141.177,236.711 141.091 C 237.530 141.005,236.760 140.936,235.000 140.937 C 233.240 140.939,232.570 141.009,233.511 141.093 M164.400 147.718 C 164.400 147.820,165.247 148.597,166.281 149.445 C 167.316 150.293,168.034 150.778,167.876 150.523 C 167.540 149.979,164.400 147.445,164.400 147.718 M187.544 153.624 L 186.600 154.447 187.800 153.745 C 189.379 152.820,189.403 152.800,188.911 152.800 C 188.679 152.800,188.064 153.171,187.544 153.624 M134.065 159.017 C 133.395 160.488,133.523 160.802,134.247 159.465 C 134.586 158.840,134.788 158.254,134.696 158.163 C 134.605 158.071,134.321 158.456,134.065 159.017 M177.656 159.213 C 176.416 160.246,176.975 160.235,178.291 159.200 C 178.850 158.760,179.149 158.406,178.954 158.413 C 178.759 158.421,178.175 158.781,177.656 159.213 M161.714 165.000 C 161.717 166.100,161.795 166.503,161.887 165.895 C 161.979 165.286,161.977 164.386,161.882 163.895 C 161.787 163.403,161.711 163.900,161.714 165.000 M145.309 165.200 C 145.309 166.190,145.387 166.595,145.482 166.100 C 145.578 165.605,145.578 164.795,145.482 164.300 C 145.387 163.805,145.309 164.210,145.309 165.200 M152.700 173.882 C 153.195 173.978,154.005 173.978,154.500 173.882 C 154.995 173.787,154.590 173.709,153.600 173.709 C 152.610 173.709,152.205 173.787,152.700 173.882 M138.400 178.925 C 138.400 178.994,138.985 179.579,139.700 180.225 L 141.000 181.400 139.825 180.100 C 138.730 178.888,138.400 178.616,138.400 178.925 M152.100 185.491 C 152.925 185.578,154.275 185.578,155.100 185.491 C 155.925 185.405,155.250 185.334,153.600 185.334 C 151.950 185.334,151.275 185.405,152.100 185.491 M233.100 189.493 C 234.035 189.577,235.565 189.577,236.500 189.493 C 237.435 189.409,236.670 189.340,234.800 189.340 C 232.930 189.340,232.165 189.409,233.100 189.493 M196.833 195.721 C 196.925 195.788,197.540 196.158,198.200 196.545 L 199.400 197.247 198.456 196.424 C 197.936 195.971,197.321 195.600,197.089 195.600 C 196.857 195.600,196.742 195.654,196.833 195.721 M234.100 201.076 C 234.485 201.176,235.115 201.176,235.500 201.076 C 235.885 200.975,235.570 200.893,234.800 200.893 C 234.030 200.893,233.715 200.975,234.100 201.076 M228.604 203.996 C 227.974 204.654,227.535 205.256,227.629 205.334 C 227.723 205.412,228.313 204.874,228.939 204.138 C 230.354 202.477,230.145 202.388,228.604 203.996 M255.000 209.600 C 255.000 211.538,255.132 212.916,255.294 212.662 C 255.456 212.408,255.588 211.030,255.588 209.600 C 255.588 208.170,255.456 206.792,255.294 206.538 C 255.132 206.284,255.000 207.662,255.000 209.600 M243.324 209.400 C 243.326 210.720,243.401 211.212,243.490 210.493 C 243.579 209.774,243.577 208.694,243.486 208.093 C 243.395 207.492,243.322 208.080,243.324 209.400 M233.463 218.100 C 233.699 218.485,236.056 218.479,236.665 218.092 C 236.921 217.929,236.264 217.797,235.205 217.798 C 234.146 217.799,233.362 217.935,233.463 218.100 M246.122 226.629 L 245.000 227.658 246.300 226.754 C 247.015 226.257,247.600 225.793,247.600 225.725 C 247.600 225.409,247.158 225.680,246.122 226.629 M234.100 229.887 C 234.705 229.978,235.695 229.978,236.300 229.887 C 236.905 229.795,236.410 229.720,235.200 229.720 C 233.990 229.720,233.495 229.795,234.100 229.887 M12.493 290.000 C 12.493 290.770,12.575 291.085,12.676 290.700 C 12.776 290.315,12.776 289.685,12.676 289.300 C 12.575 288.915,12.493 289.230,12.493 290.000 M0.000 292.400 C 0.000 292.620,0.270 292.800,0.600 292.800 C 0.930 292.800,1.200 292.620,1.200 292.400 C 1.200 292.180,0.930 292.000,0.600 292.000 C 0.270 292.000,0.000 292.180,0.000 292.400 M399.067 292.267 C 398.920 292.413,398.800 292.786,398.800 293.095 C 398.800 293.561,398.903 293.554,399.400 293.057 C 399.730 292.727,400.000 292.354,400.000 292.229 C 400.000 291.915,399.393 291.940,399.067 292.267 M14.400 295.464 C 14.400 295.682,14.895 296.297,15.500 296.830 L 16.600 297.800 15.600 296.600 C 15.050 295.940,14.555 295.325,14.500 295.233 C 14.445 295.142,14.400 295.245,14.400 295.464 M1.600 296.153 C 1.600 296.582,2.790 298.800,3.021 298.800 C 3.131 298.800,2.923 298.215,2.559 297.500 C 1.817 296.040,1.600 295.736,1.600 296.153 M20.303 301.500 C 20.821 301.995,21.460 302.395,21.722 302.388 C 21.985 302.381,21.840 302.176,21.400 301.932 C 20.960 301.688,20.321 301.288,19.980 301.044 C 19.640 300.800,19.785 301.005,20.303 301.500 M199.100 304.282 C 199.595 304.378,200.405 304.378,200.900 304.282 C 201.395 304.187,200.990 304.109,200.000 304.109 C 199.010 304.109,198.605 304.187,199.100 304.282 M9.000 307.600 C 10.083 308.700,11.060 309.600,11.170 309.600 C 11.280 309.600,10.483 308.700,9.400 307.600 C 8.317 306.500,7.340 305.600,7.230 305.600 C 7.120 305.600,7.917 306.500,9.000 307.600 M375.400 315.814 C 374.740 316.117,374.470 316.366,374.800 316.368 C 375.130 316.370,375.850 316.114,376.400 315.800 C 377.665 315.077,376.989 315.087,375.400 315.814 M68.900 316.700 C 91.725 316.757,129.075 316.757,151.900 316.700 C 174.725 316.643,156.050 316.596,110.400 316.596 C 64.750 316.596,46.075 316.643,68.900 316.700 M206.662 316.700 C 206.494 316.971,262.659 316.970,342.600 316.697 C 359.100 316.641,335.306 316.551,289.724 316.497 C 244.142 316.444,206.764 316.535,206.662 316.700 M193.787 339.000 C 193.787 351.100,193.837 356.108,193.900 350.128 C 193.962 344.149,193.962 334.249,193.900 328.128 C 193.838 322.008,193.787 326.900,193.787 339.000 M139.130 362.700 C 149.102 362.759,165.302 362.759,175.130 362.700 C 184.959 362.640,176.800 362.592,157.000 362.592 C 137.200 362.592,129.159 362.640,139.130 362.700 M225.130 362.700 C 235.102 362.759,251.302 362.759,261.130 362.700 C 270.959 362.640,262.800 362.592,243.000 362.592 C 223.200 362.592,215.159 362.640,225.130 362.700 M282.909 368.400 C 282.909 369.390,282.987 369.795,283.082 369.300 C 283.178 368.805,283.178 367.995,283.082 367.500 C 282.987 367.005,282.909 367.410,282.909 368.400 M281.429 372.362 L 280.258 373.800 281.609 372.513 C 282.351 371.805,282.878 371.158,282.779 371.075 C 282.681 370.992,282.073 371.571,281.429 372.362 M121.000 374.000 C 121.440 374.189,122.160 374.338,122.600 374.332 C 123.243 374.323,123.204 374.257,122.400 374.000 C 121.032 373.562,119.981 373.562,121.000 374.000 M199.100 374.682 C 199.595 374.778,200.405 374.778,200.900 374.682 C 201.395 374.587,200.990 374.509,200.000 374.509 C 199.010 374.509,198.605 374.587,199.100 374.682 " stroke="none" fill="#7c7c7c" fill-rule="evenodd"></path><path id="path3" d="M25.319 25.388 C 24.615 25.695,23.175 26.070,22.119 26.223 C 21.064 26.375,19.750 26.742,19.200 27.038 C 18.650 27.333,17.570 27.857,16.800 28.203 C 14.113 29.408,12.706 30.268,12.334 30.932 C 12.129 31.299,11.732 31.600,11.452 31.600 C 11.173 31.600,10.553 32.050,10.075 32.600 C 9.597 33.150,9.024 33.600,8.803 33.600 C 8.581 33.600,8.400 33.780,8.400 34.000 C 8.400 34.221,7.680 35.100,6.800 35.954 C 5.920 36.808,5.200 37.662,5.200 37.853 C 5.199 38.044,4.749 38.723,4.200 39.362 C 3.650 40.001,3.200 40.774,3.200 41.078 C 3.200 41.383,2.827 42.137,2.370 42.755 C 1.914 43.372,1.440 44.625,1.318 45.539 C 1.179 46.569,0.887 47.200,0.547 47.200 C 0.230 47.200,0.000 47.621,0.000 48.200 C 0.000 50.071,1.130 49.351,1.411 47.300 C 1.555 46.255,2.008 44.923,2.418 44.340 C 2.829 43.757,3.290 42.767,3.443 42.140 C 3.596 41.513,4.144 40.491,4.661 39.869 C 5.177 39.247,5.600 38.600,5.600 38.430 C 5.600 37.121,12.191 31.377,15.805 29.537 C 20.726 27.030,21.554 26.747,25.597 26.183 C 30.036 25.564,371.108 25.540,375.800 26.158 L 377.800 26.422 375.615 25.611 C 372.757 24.550,27.751 24.331,25.319 25.388 M379.800 27.391 C 380.900 27.932,382.080 28.381,382.422 28.387 C 382.765 28.394,383.655 28.850,384.400 29.400 C 385.145 29.950,385.920 30.400,386.122 30.400 C 386.324 30.400,387.414 31.162,388.544 32.094 C 393.717 36.356,397.329 41.728,398.547 46.967 C 398.798 48.049,399.228 49.009,399.502 49.101 C 400.181 49.327,400.144 47.687,399.455 46.998 C 399.156 46.699,398.798 45.745,398.659 44.879 C 398.520 44.013,398.136 43.078,397.804 42.803 C 397.472 42.527,397.200 42.026,397.200 41.689 C 397.200 41.351,396.750 40.486,396.200 39.764 C 395.650 39.043,395.200 38.294,395.200 38.099 C 395.200 37.904,394.795 37.362,394.300 36.896 C 393.805 36.429,392.860 35.411,392.200 34.632 C 391.540 33.854,390.888 33.213,390.751 33.208 C 390.613 33.204,389.713 32.475,388.751 31.589 C 387.788 30.703,386.595 29.873,386.100 29.746 C 385.605 29.618,385.200 29.368,385.200 29.190 C 385.200 29.012,384.345 28.543,383.300 28.148 C 382.255 27.753,381.162 27.198,380.871 26.915 C 380.581 26.632,379.771 26.402,379.071 26.404 C 377.839 26.407,377.861 26.437,379.800 27.391 M27.200 37.893 C 26.650 37.994,26.020 38.222,25.800 38.399 C 25.580 38.577,24.590 38.938,23.600 39.202 C 22.610 39.467,21.710 39.801,21.600 39.945 C 21.490 40.089,20.657 40.689,19.748 41.277 C 17.631 42.649,15.511 45.246,13.886 48.459 L 12.600 51.000 12.600 171.000 L 12.600 291.000 13.921 293.729 C 15.429 296.843,19.394 301.100,21.605 301.978 C 22.372 302.282,23.294 302.781,23.653 303.086 C 24.013 303.390,25.903 303.807,27.853 304.012 C 32.218 304.469,367.671 304.494,372.036 304.037 C 375.106 303.715,378.961 302.251,379.984 301.019 C 380.267 300.678,380.651 300.400,380.839 300.400 C 381.026 300.400,381.769 299.752,382.490 298.960 C 383.210 298.168,384.074 297.219,384.408 296.852 C 384.743 296.484,385.553 295.107,386.208 293.792 L 387.400 291.400 387.400 171.000 L 387.400 50.600 386.033 48.018 C 383.151 42.577,379.386 39.723,372.800 37.988 C 371.400 37.619,29.201 37.525,27.200 37.893 M373.229 38.969 C 374.203 39.282,375.658 39.647,376.461 39.780 C 377.265 39.913,378.024 40.287,378.149 40.611 C 378.273 40.935,378.642 41.200,378.970 41.200 C 379.834 41.200,385.200 46.765,385.200 47.661 C 385.200 47.915,385.651 49.076,386.202 50.241 L 387.204 52.359 387.102 171.737 C 387.009 280.987,386.945 291.179,386.354 291.858 C 385.998 292.266,385.582 293.128,385.428 293.773 C 385.274 294.418,384.710 295.467,384.174 296.104 C 383.638 296.740,383.200 297.415,383.200 297.604 C 383.200 297.792,382.840 298.060,382.400 298.200 C 381.960 298.340,381.599 298.667,381.597 298.927 C 381.596 299.187,381.101 299.710,380.497 300.089 C 379.894 300.467,379.130 300.951,378.800 301.164 C 378.470 301.377,377.176 302.012,375.925 302.576 L 373.650 303.600 200.011 303.600 L 26.373 303.600 24.400 302.600 C 23.315 302.050,22.256 301.600,22.047 301.600 C 21.689 301.600,20.890 300.990,18.509 298.900 C 17.945 298.405,17.329 298.000,17.142 298.000 C 16.954 298.000,16.800 297.792,16.800 297.538 C 16.800 297.284,16.350 296.486,15.800 295.764 C 15.250 295.043,14.799 294.216,14.799 293.927 C 14.798 293.637,14.438 292.811,13.999 292.090 C 12.933 290.343,12.711 51.303,13.774 50.421 C 14.090 50.159,14.471 49.372,14.622 48.672 C 14.857 47.578,17.047 44.591,19.258 42.351 C 19.885 41.716,21.255 40.879,23.000 40.067 C 26.555 38.411,19.080 38.479,200.029 38.439 C 347.219 38.405,371.708 38.480,373.229 38.969 M230.800 100.225 C 230.030 100.516,229.003 100.765,228.519 100.777 C 227.463 100.804,225.600 101.606,225.600 102.032 C 225.600 102.200,225.096 102.447,224.480 102.582 C 222.767 102.959,216.400 109.459,216.400 110.832 C 216.400 111.110,216.118 111.649,215.773 112.029 C 215.022 112.859,213.903 118.117,213.811 121.244 C 213.738 123.738,212.851 125.279,211.185 125.801 C 210.643 125.971,209.771 126.445,209.246 126.855 C 208.721 127.265,208.059 127.600,207.775 127.600 C 207.490 127.600,207.001 127.857,206.687 128.170 C 206.373 128.484,205.505 129.030,204.758 129.384 C 204.011 129.738,202.680 130.469,201.800 131.008 C 200.920 131.547,199.435 132.345,198.500 132.780 C 197.565 133.215,196.800 133.744,196.800 133.954 C 196.800 134.164,196.279 134.451,195.641 134.591 C 195.004 134.731,194.166 135.195,193.779 135.623 C 193.393 136.050,192.753 136.400,192.359 136.400 C 191.964 136.400,191.156 136.850,190.562 137.400 C 189.969 137.950,189.247 138.400,188.959 138.400 C 188.415 138.400,185.887 139.918,184.741 140.934 C 184.378 141.256,183.542 141.637,182.882 141.782 C 182.223 141.927,181.366 142.395,180.979 142.823 C 180.593 143.250,179.972 143.600,179.600 143.600 C 179.228 143.600,178.613 143.944,178.233 144.364 C 177.852 144.784,177.074 145.245,176.502 145.389 C 175.931 145.532,175.020 145.998,174.478 146.425 C 173.936 146.851,173.274 147.200,173.008 147.200 C 172.742 147.200,172.223 147.532,171.856 147.939 C 170.991 148.894,167.888 149.863,167.681 149.242 C 167.600 148.999,167.273 148.800,166.954 148.800 C 166.636 148.800,166.277 148.544,166.157 148.231 C 166.037 147.918,165.277 147.369,164.469 147.011 C 163.661 146.653,162.550 146.102,162.000 145.786 C 161.450 145.470,160.707 145.209,160.349 145.206 C 159.991 145.203,159.001 144.907,158.149 144.550 C 156.058 143.672,150.996 143.671,149.302 144.547 C 148.608 144.906,147.626 145.203,147.120 145.206 C 146.614 145.209,145.750 145.468,145.200 145.782 C 144.650 146.095,143.660 146.605,143.000 146.914 C 141.390 147.669,136.400 152.413,136.400 153.190 C 136.400 153.529,136.056 154.022,135.636 154.285 C 135.216 154.547,134.743 155.355,134.586 156.081 C 134.428 156.806,134.122 157.513,133.905 157.651 C 132.447 158.580,132.461 171.828,133.921 172.759 C 134.129 172.891,134.422 173.566,134.572 174.259 C 134.723 174.951,135.195 175.834,135.623 176.221 C 136.050 176.607,136.400 177.129,136.400 177.380 C 136.400 177.994,140.413 182.000,141.028 182.000 C 141.296 182.000,141.607 182.241,141.720 182.535 C 142.026 183.333,146.207 185.254,148.124 185.478 C 149.046 185.586,150.406 185.945,151.146 186.277 C 152.571 186.917,156.562 186.709,157.017 185.972 C 157.144 185.767,157.912 185.599,158.724 185.598 C 160.738 185.596,165.645 183.108,167.473 181.162 C 168.021 180.578,168.196 180.586,169.521 181.262 C 170.317 181.668,171.173 182.000,171.423 182.000 C 171.672 182.000,172.202 182.360,172.600 182.800 C 172.998 183.240,173.542 183.600,173.808 183.600 C 174.074 183.600,174.721 183.935,175.246 184.345 C 175.771 184.755,176.650 185.227,177.200 185.395 C 177.750 185.562,178.522 186.037,178.916 186.450 C 179.309 186.862,179.867 187.200,180.154 187.200 C 180.442 187.200,181.093 187.560,181.600 188.000 C 182.107 188.440,182.730 188.800,182.983 188.800 C 183.237 188.800,184.055 189.250,184.800 189.800 C 185.545 190.350,186.453 190.800,186.816 190.800 C 187.179 190.800,187.793 191.150,188.179 191.577 C 188.566 192.005,189.404 192.469,190.041 192.609 C 190.679 192.749,191.200 193.028,191.200 193.229 C 191.200 193.579,192.623 194.421,195.593 195.829 C 196.360 196.192,197.419 196.829,197.947 197.244 C 198.476 197.660,199.244 198.000,199.654 198.000 C 200.064 198.000,200.400 198.186,200.400 198.414 C 200.400 198.642,201.165 199.190,202.100 199.631 C 203.035 200.073,204.520 200.870,205.400 201.404 C 207.926 202.934,209.670 203.908,211.457 204.786 C 213.419 205.749,213.706 206.288,213.802 209.200 C 213.905 212.313,215.031 217.551,215.773 218.371 C 216.118 218.751,216.400 219.284,216.400 219.555 C 216.400 220.487,221.367 226.400,222.150 226.400 C 222.363 226.400,222.830 226.665,223.187 226.988 C 225.483 229.066,232.624 231.102,236.090 230.668 C 240.144 230.160,242.990 229.556,243.573 229.080 C 243.918 228.798,244.875 228.263,245.700 227.891 C 246.525 227.518,247.200 227.030,247.200 226.806 C 247.200 226.583,247.412 226.400,247.670 226.400 C 248.334 226.400,252.701 221.744,253.034 220.681 C 253.186 220.197,253.645 219.371,254.055 218.846 C 254.465 218.321,254.800 217.416,254.800 216.835 C 254.800 216.254,255.115 215.333,255.500 214.789 C 256.059 213.999,256.200 212.957,256.200 209.600 C 256.200 206.243,256.059 205.201,255.500 204.411 C 255.115 203.867,254.800 203.021,254.800 202.530 C 254.800 201.498,254.009 199.600,253.579 199.600 C 253.418 199.600,253.177 199.164,253.043 198.631 C 252.771 197.545,247.665 192.199,246.289 191.558 C 245.800 191.331,244.770 190.797,244.000 190.373 C 243.230 189.948,242.150 189.595,241.600 189.588 C 241.050 189.581,240.251 189.310,239.824 188.987 C 238.727 188.158,231.273 188.158,230.176 188.987 C 229.749 189.310,228.950 189.583,228.400 189.593 C 227.850 189.603,226.950 189.872,226.400 190.190 C 225.850 190.508,224.950 190.989,224.400 191.260 C 223.850 191.530,222.914 192.192,222.320 192.731 C 221.010 193.920,218.465 193.776,217.035 192.433 C 216.547 191.975,215.873 191.600,215.535 191.600 C 215.198 191.600,214.502 191.235,213.987 190.789 C 213.473 190.343,212.636 189.874,212.126 189.746 C 211.617 189.618,211.200 189.372,211.200 189.200 C 211.200 189.028,210.515 188.613,209.677 188.278 C 208.840 187.943,207.918 187.383,207.628 187.034 C 207.339 186.685,206.773 186.400,206.372 186.400 C 205.970 186.400,205.156 185.950,204.562 185.400 C 203.969 184.850,203.177 184.400,202.804 184.400 C 202.430 184.400,201.813 184.056,201.433 183.636 C 201.052 183.216,200.300 182.761,199.760 182.626 C 199.221 182.490,198.424 182.024,197.990 181.590 C 197.555 181.155,196.868 180.800,196.462 180.800 C 196.056 180.800,195.398 180.440,195.000 180.000 C 194.602 179.560,194.058 179.200,193.792 179.200 C 193.526 179.200,192.879 178.865,192.354 178.455 C 191.829 178.045,190.950 177.575,190.400 177.409 C 189.850 177.244,189.040 176.789,188.600 176.400 C 188.160 176.011,187.377 175.563,186.861 175.406 C 186.344 175.249,185.579 174.779,185.161 174.361 C 184.742 173.942,184.040 173.600,183.600 173.600 C 183.160 173.600,182.800 173.433,182.800 173.229 C 182.800 173.025,182.080 172.540,181.200 172.152 C 180.320 171.764,179.600 171.315,179.600 171.154 C 179.600 170.993,178.961 170.651,178.180 170.393 C 173.717 168.921,173.216 160.400,177.592 160.400 C 177.968 160.400,178.602 160.040,179.000 159.600 C 179.398 159.160,179.966 158.800,180.262 158.800 C 180.558 158.800,181.139 158.461,181.554 158.046 C 181.968 157.632,182.942 157.083,183.718 156.827 C 184.494 156.571,185.230 156.100,185.352 155.781 C 185.475 155.461,185.941 155.200,186.387 155.200 C 186.834 155.200,187.560 154.840,188.000 154.400 C 188.440 153.960,189.035 153.600,189.322 153.600 C 189.610 153.600,190.455 153.150,191.200 152.600 C 191.945 152.050,192.778 151.600,193.049 151.600 C 193.321 151.600,193.781 151.365,194.071 151.077 C 194.604 150.551,196.611 149.418,199.200 148.182 C 199.970 147.815,200.744 147.263,200.920 146.957 C 201.096 146.651,201.556 146.400,201.942 146.400 C 202.328 146.400,203.255 145.950,204.000 145.400 C 204.745 144.850,205.563 144.400,205.816 144.400 C 206.069 144.400,206.602 144.040,207.000 143.600 C 207.398 143.160,208.056 142.800,208.462 142.800 C 208.868 142.800,209.542 142.458,209.961 142.039 C 210.379 141.621,211.144 141.150,211.661 140.992 C 212.177 140.834,212.870 140.475,213.200 140.193 C 213.530 139.910,214.475 139.401,215.300 139.060 C 216.125 138.720,216.800 138.252,216.800 138.020 C 216.800 137.789,217.025 137.599,217.300 137.598 C 217.575 137.596,218.280 137.344,218.867 137.038 C 220.039 136.427,220.956 136.721,223.074 138.387 C 223.643 138.834,224.280 139.200,224.491 139.200 C 224.701 139.200,225.305 139.539,225.832 139.954 C 226.359 140.369,227.610 140.831,228.611 140.981 C 229.612 141.131,231.048 141.512,231.802 141.827 C 233.545 142.555,236.917 142.565,238.320 141.847 C 238.914 141.543,240.210 141.162,241.200 141.000 C 242.190 140.838,243.810 140.243,244.800 139.680 C 246.670 138.614,247.092 138.304,248.860 136.686 C 249.443 136.153,250.208 135.606,250.560 135.471 C 250.912 135.336,251.203 134.994,251.207 134.713 C 251.211 134.431,251.661 133.776,252.207 133.258 C 252.753 132.740,253.200 131.969,253.200 131.545 C 253.200 131.122,253.465 130.673,253.789 130.549 C 254.113 130.424,254.491 129.665,254.629 128.861 C 254.767 128.058,255.222 126.668,255.640 125.774 C 256.704 123.497,256.678 118.452,255.591 116.056 C 255.156 115.097,254.800 113.907,254.800 113.410 C 254.800 112.914,254.440 112.050,254.000 111.491 C 253.560 110.931,253.200 110.286,253.200 110.058 C 253.200 109.829,252.795 109.182,252.300 108.620 C 251.805 108.058,250.772 106.879,250.003 105.999 C 249.235 105.120,248.424 104.400,248.200 104.400 C 247.976 104.400,247.578 104.056,247.315 103.636 C 247.053 103.216,246.290 102.751,245.619 102.604 C 244.949 102.457,244.400 102.200,244.400 102.032 C 244.400 101.560,242.482 100.800,241.281 100.798 C 240.687 100.796,239.684 100.526,239.054 100.198 C 237.636 99.458,232.785 99.474,230.800 100.225 M239.610 101.026 C 241.424 101.370,243.167 101.910,243.483 102.226 C 243.799 102.542,244.252 102.800,244.491 102.800 C 244.729 102.800,245.514 103.250,246.236 103.800 C 246.957 104.350,247.707 104.800,247.902 104.800 C 248.098 104.800,248.875 105.545,249.629 106.455 C 250.383 107.365,251.188 108.310,251.417 108.555 C 258.121 115.708,255.981 130.960,247.404 137.167 C 240.284 142.320,228.209 142.540,223.198 137.608 C 221.985 136.414,219.593 135.365,219.271 135.885 C 219.106 136.151,218.348 136.658,217.586 137.011 C 216.824 137.364,215.480 138.071,214.600 138.582 C 213.720 139.094,212.190 139.982,211.200 140.556 C 210.210 141.130,208.770 141.890,208.000 142.245 C 207.230 142.600,206.510 143.028,206.400 143.198 C 206.290 143.367,205.538 143.842,204.728 144.253 C 203.485 144.883,199.372 147.186,195.177 149.600 C 194.603 149.930,193.429 150.560,192.567 151.000 C 191.705 151.440,190.910 151.898,190.800 152.017 C 190.408 152.443,182.473 156.800,182.089 156.800 C 181.874 156.800,181.465 157.080,181.181 157.423 C 180.896 157.766,180.109 158.313,179.432 158.639 C 174.202 161.155,174.414 160.877,174.406 165.238 C 174.399 169.049,174.539 169.307,177.452 170.865 C 180.081 172.271,181.735 173.194,183.400 174.183 C 184.280 174.705,185.720 175.514,186.600 175.980 C 188.559 177.019,190.489 178.118,192.600 179.396 C 193.480 179.930,194.920 180.736,195.800 181.189 C 196.680 181.641,198.120 182.451,199.000 182.989 C 199.880 183.526,201.320 184.336,202.200 184.789 C 203.080 185.241,204.520 186.051,205.400 186.589 C 206.280 187.126,207.720 187.945,208.600 188.407 C 211.128 189.737,212.749 190.662,213.295 191.087 C 216.990 193.959,220.735 194.920,222.400 193.423 C 234.538 182.510,255.333 192.725,255.333 209.600 C 255.333 235.411,216.192 236.961,214.918 211.200 C 214.688 206.543,214.262 205.472,212.269 204.539 C 211.571 204.212,210.344 203.552,209.541 203.073 C 205.465 200.635,195.813 195.204,194.000 194.328 C 193.450 194.063,192.730 193.625,192.400 193.355 C 192.070 193.086,190.540 192.202,189.000 191.391 C 187.460 190.581,185.930 189.680,185.600 189.390 C 185.270 189.100,184.505 188.739,183.900 188.588 C 183.295 188.437,182.800 188.146,182.800 187.942 C 182.800 187.738,182.035 187.210,181.100 186.769 C 180.165 186.327,178.680 185.538,177.800 185.015 C 176.920 184.492,175.570 183.724,174.800 183.307 C 174.030 182.891,172.361 181.976,171.091 181.275 C 168.493 179.840,167.795 179.722,167.288 180.629 C 166.295 182.403,159.901 185.114,155.976 185.426 C 146.016 186.217,138.235 181.532,134.514 172.502 C 132.373 167.309,133.322 157.421,136.240 154.503 C 136.548 154.195,136.800 153.796,136.800 153.617 C 136.800 152.765,142.301 147.919,144.354 146.964 C 151.782 143.506,161.032 144.510,166.672 149.388 L 168.200 150.710 170.400 149.544 C 172.607 148.374,174.819 147.127,177.800 145.369 C 178.680 144.850,179.940 144.142,180.600 143.796 C 181.260 143.451,182.520 142.732,183.400 142.201 C 184.280 141.669,185.720 140.859,186.600 140.400 C 187.480 139.941,188.920 139.126,189.800 138.589 C 190.680 138.051,192.120 137.241,193.000 136.789 C 193.880 136.336,195.257 135.569,196.061 135.083 C 198.987 133.314,201.427 131.922,202.600 131.354 C 203.260 131.034,204.458 130.373,205.263 129.886 C 208.213 128.099,212.036 126.000,212.339 126.000 C 213.836 126.000,214.708 123.739,214.902 119.347 C 215.036 116.333,215.305 114.523,215.737 113.747 C 216.088 113.116,216.641 111.925,216.967 111.100 C 217.293 110.275,217.748 109.600,217.980 109.600 C 218.211 109.600,218.400 109.346,218.400 109.035 C 218.400 108.116,223.606 103.621,225.993 102.480 C 230.065 100.533,234.511 100.058,239.610 101.026 M231.630 113.405 C 229.404 114.624,227.747 116.419,227.404 117.982 C 227.258 118.647,226.972 119.294,226.769 119.419 C 226.300 119.709,226.287 121.718,226.752 122.220 C 226.945 122.429,227.311 123.230,227.564 124.000 C 229.667 130.393,238.664 130.852,242.330 124.753 C 246.232 118.262,238.239 109.785,231.630 113.405 M236.220 113.136 C 236.429 113.321,237.230 113.716,238.000 114.015 C 239.670 114.662,241.595 116.359,241.613 117.199 C 241.620 117.529,241.890 118.149,242.213 118.576 C 244.179 121.176,241.338 126.696,237.417 127.894 C 234.648 128.740,230.266 127.868,229.793 126.377 C 229.657 125.950,229.313 125.600,229.028 125.600 C 228.717 125.600,228.303 124.628,227.993 123.168 C 227.057 118.758,228.673 115.164,232.101 114.033 C 232.925 113.761,233.600 113.372,233.600 113.169 C 233.600 112.708,235.705 112.681,236.220 113.136 M150.130 157.752 C 143.870 161.186,143.977 169.577,150.321 172.700 C 157.538 176.253,164.825 167.646,160.500 160.677 C 158.312 157.152,153.631 155.831,150.130 157.752 M155.800 158.000 C 156.680 158.425,157.608 158.779,157.862 158.786 C 160.283 158.857,162.347 166.838,160.400 168.600 C 159.960 168.998,159.600 169.485,159.600 169.681 C 159.600 170.491,157.429 171.961,155.579 172.405 C 146.505 174.582,142.304 162.137,150.800 158.245 C 153.453 157.029,153.759 157.014,155.800 158.000 M232.639 201.487 C 232.221 201.594,231.681 201.837,231.439 202.027 C 228.945 203.987,227.978 205.061,227.576 206.320 C 227.316 207.134,226.945 207.971,226.752 208.180 C 226.287 208.682,226.300 210.691,226.769 210.981 C 226.972 211.106,227.258 211.754,227.405 212.421 C 228.230 216.180,233.898 218.946,237.540 217.367 C 240.015 216.293,240.157 216.184,241.698 214.164 C 246.283 208.153,240.147 199.567,232.639 201.487 M237.688 202.464 C 239.735 203.497,241.600 205.137,241.600 205.903 C 241.600 206.208,241.870 206.727,242.200 207.057 C 243.042 207.899,242.947 210.343,242.000 212.200 C 241.560 213.063,241.200 214.001,241.200 214.285 C 241.200 214.568,240.952 214.800,240.649 214.800 C 240.346 214.800,239.851 215.165,239.549 215.612 C 238.266 217.509,232.030 217.129,229.790 215.017 C 224.013 209.568,230.700 198.938,237.688 202.464 M0.000 293.800 C 0.000 294.380,0.230 294.800,0.548 294.800 C 0.904 294.800,1.190 295.498,1.360 296.784 C 1.505 297.875,1.813 298.884,2.045 299.028 C 2.277 299.171,2.805 300.078,3.219 301.044 C 3.633 302.010,4.158 302.800,4.386 302.800 C 4.614 302.800,4.800 303.031,4.800 303.314 C 4.800 304.146,6.741 306.334,11.442 310.800 C 11.905 311.240,12.462 311.600,12.680 311.600 C 12.898 311.600,13.399 311.956,13.793 312.392 C 14.187 312.828,15.103 313.296,15.827 313.431 C 16.552 313.567,17.238 313.921,17.351 314.217 C 17.465 314.513,18.242 314.882,19.079 315.037 C 19.916 315.191,21.227 315.651,21.994 316.059 C 22.922 316.552,24.126 316.782,25.594 316.746 C 26.807 316.716,27.350 316.622,26.800 316.538 C 23.381 316.013,16.620 313.396,13.600 311.427 C 11.422 310.007,5.200 303.809,5.200 303.060 C 5.200 302.765,4.840 302.198,4.400 301.800 C 3.960 301.402,3.600 300.877,3.600 300.635 C 3.600 300.392,3.174 299.385,2.653 298.397 C 2.132 297.409,1.581 295.745,1.428 294.700 C 1.129 292.649,0.000 291.938,0.000 293.800 M398.839 294.060 C 398.598 294.753,398.400 295.566,398.400 295.868 C 398.400 296.745,395.230 303.017,394.273 304.036 C 393.793 304.546,392.945 305.531,392.389 306.225 C 391.376 307.488,386.642 311.600,386.201 311.600 C 386.072 311.600,385.749 311.781,385.483 312.002 C 384.605 312.734,380.331 314.800,379.659 314.818 C 379.297 314.827,378.280 315.116,377.400 315.460 C 376.520 315.804,374.990 316.222,374.000 316.389 L 372.200 316.693 374.400 316.733 C 375.826 316.759,377.163 316.501,378.200 316.000 C 379.080 315.575,380.181 315.221,380.646 315.214 C 381.111 315.206,381.950 314.840,382.509 314.400 C 383.069 313.960,383.799 313.600,384.132 313.600 C 384.466 313.600,385.273 313.150,385.927 312.600 C 386.581 312.050,387.244 311.600,387.401 311.600 C 387.559 311.600,388.073 311.260,388.544 310.844 C 392.290 307.534,393.600 306.217,393.600 305.759 C 393.600 305.467,393.960 305.035,394.400 304.800 C 394.840 304.565,395.200 304.179,395.200 303.944 C 395.200 303.708,395.650 302.981,396.200 302.327 C 396.750 301.673,397.200 300.814,397.200 300.418 C 397.200 300.022,397.454 299.487,397.765 299.229 C 398.076 298.971,398.543 297.869,398.805 296.780 C 399.066 295.691,399.442 294.800,399.640 294.800 C 399.838 294.800,400.000 294.350,400.000 293.800 C 400.000 292.409,399.365 292.551,398.839 294.060 M193.107 339.392 L 193.213 361.984 156.376 362.092 L 119.538 362.200 118.262 363.600 C 114.867 367.325,115.694 372.135,120.138 374.511 L 121.800 375.400 200.000 375.400 L 278.200 375.400 280.361 374.203 C 281.954 373.321,282.666 372.638,283.071 371.603 C 283.373 370.832,283.797 369.885,284.014 369.500 C 284.522 368.594,283.246 364.846,282.008 363.608 C 280.446 362.046,279.338 362.000,242.910 362.000 L 207.215 362.000 206.995 361.100 C 206.874 360.605,206.826 350.444,206.888 338.520 C 206.949 326.596,206.863 316.976,206.697 317.143 C 206.530 317.310,206.440 327.516,206.497 339.823 L 206.600 362.200 243.293 362.400 L 279.987 362.600 281.493 364.107 C 284.599 367.213,283.327 372.716,279.218 373.947 C 278.075 374.290,257.520 374.409,199.774 374.409 L 121.871 374.409 120.115 373.559 C 116.431 371.775,115.772 366.839,118.821 363.858 L 120.107 362.600 156.754 362.400 L 193.400 362.200 193.503 339.500 C 193.560 327.015,193.470 316.800,193.303 316.800 C 193.136 316.800,193.048 326.966,193.107 339.392 " stroke="none" fill="#a2a2a2" fill-rule="evenodd"></path><path id="path4" d="M25.007 26.468 C 23.081 26.688,20.938 27.240,19.607 27.861 C 15.998 29.543,13.434 30.919,12.871 31.476 C 12.581 31.764,12.215 32.000,12.059 32.000 C 11.661 32.000,7.946 35.603,7.103 36.806 C 4.677 40.267,3.655 41.920,3.398 42.800 C 3.237 43.350,2.872 44.070,2.588 44.400 C 2.201 44.849,1.200 48.795,1.200 49.873 C 1.200 49.943,0.930 50.000,0.600 50.000 C 0.267 50.000,0.000 50.356,0.000 50.800 C 0.000 53.581,1.727 51.070,2.201 47.600 C 2.366 46.390,2.839 44.971,3.251 44.446 C 3.663 43.921,4.000 43.077,4.000 42.570 C 4.000 42.062,4.187 41.531,4.416 41.390 C 4.780 41.165,6.162 39.242,7.400 37.238 C 8.198 35.946,11.935 32.400,12.498 32.400 C 12.816 32.400,13.398 32.045,13.791 31.610 C 14.184 31.176,14.887 30.701,15.353 30.555 C 15.819 30.409,16.629 29.955,17.154 29.545 C 17.679 29.135,18.509 28.800,19.000 28.800 C 19.491 28.800,20.407 28.395,21.036 27.900 L 22.180 27.000 197.390 26.879 C 377.329 26.756,377.768 26.758,379.178 27.981 C 379.633 28.376,380.705 28.810,381.559 28.947 C 382.414 29.084,383.217 29.467,383.344 29.798 C 383.471 30.129,383.927 30.400,384.357 30.400 C 384.787 30.400,385.673 30.850,386.327 31.400 C 386.981 31.950,387.682 32.400,387.886 32.400 C 388.089 32.400,388.628 32.828,389.083 33.352 C 389.539 33.875,390.073 34.370,390.270 34.452 C 390.468 34.533,391.253 35.406,392.015 36.390 C 392.777 37.375,393.625 38.423,393.900 38.719 C 394.175 39.015,394.400 39.486,394.400 39.767 C 394.400 40.047,394.756 40.599,395.192 40.993 C 395.628 41.387,396.101 42.329,396.243 43.087 C 396.385 43.844,396.737 44.555,397.026 44.665 C 397.323 44.779,397.669 45.851,397.824 47.133 C 398.135 49.715,398.959 52.000,399.580 52.000 C 400.217 52.000,400.082 50.350,399.404 49.844 C 399.077 49.600,398.634 48.467,398.420 47.328 C 398.206 46.188,397.664 44.571,397.216 43.734 C 396.767 42.897,396.400 42.082,396.400 41.924 C 396.400 41.621,394.929 39.275,393.714 37.638 C 392.333 35.779,388.981 32.588,387.200 31.437 C 386.210 30.798,384.923 29.951,384.340 29.555 C 383.757 29.159,382.767 28.714,382.140 28.566 C 381.513 28.418,380.460 27.978,379.800 27.589 C 379.066 27.155,377.002 26.709,374.484 26.440 C 369.306 25.886,29.872 25.914,25.007 26.468 M26.989 37.163 C 26.103 37.310,24.938 37.738,24.400 38.115 C 23.862 38.492,23.040 38.800,22.573 38.800 C 22.106 38.800,21.398 39.160,21.000 39.600 C 20.602 40.040,20.011 40.400,19.686 40.400 C 18.806 40.400,14.818 44.657,14.124 46.337 C 13.792 47.142,13.259 48.094,12.940 48.453 C 11.697 49.854,11.614 57.482,11.614 171.000 C 11.614 284.361,11.698 292.137,12.933 293.547 C 13.248 293.906,13.639 294.650,13.803 295.200 C 13.967 295.750,14.348 296.470,14.649 296.800 C 17.405 299.820,18.379 300.800,18.623 300.800 C 18.780 300.800,19.325 301.250,19.835 301.800 C 20.345 302.350,21.102 302.800,21.519 302.800 C 21.935 302.800,22.602 303.160,23.000 303.600 C 23.574 304.234,24.188 304.389,25.962 304.347 L 28.200 304.293 26.400 304.032 C 22.660 303.489,14.452 297.608,14.387 295.424 C 14.381 295.191,13.932 294.100,13.391 293.000 L 12.407 291.000 12.405 171.000 L 12.403 51.000 13.505 48.800 C 14.792 46.233,16.815 43.259,17.864 42.393 C 19.747 40.840,22.442 39.254,23.654 38.988 C 24.388 38.827,25.365 38.448,25.825 38.147 C 26.532 37.684,53.736 37.615,200.231 37.708 L 373.800 37.818 376.074 38.705 C 380.742 40.526,383.863 43.443,386.445 48.400 L 387.800 51.000 387.800 171.000 L 387.800 291.000 386.426 293.766 C 384.601 297.441,380.888 301.154,377.301 302.892 L 374.600 304.200 201.400 304.400 C 106.140 304.510,29.370 304.743,30.800 304.918 C 34.435 305.362,370.739 304.998,374.089 304.546 C 375.723 304.326,376.978 303.931,377.289 303.540 C 377.570 303.186,378.301 302.780,378.912 302.637 C 380.300 302.315,385.936 296.626,386.260 295.220 C 386.390 294.659,386.767 293.983,387.099 293.718 C 388.285 292.772,388.357 285.763,388.357 171.200 C 388.357 56.394,388.289 49.827,387.083 48.489 C 386.742 48.110,386.340 47.311,386.191 46.714 C 385.648 44.536,379.628 39.127,377.226 38.659 C 376.471 38.511,375.507 38.078,375.084 37.695 C 374.291 36.978,31.274 36.454,26.989 37.163 M230.200 101.267 C 226.031 102.055,217.200 108.589,217.200 110.887 C 217.200 111.186,216.832 112.144,216.382 113.015 C 215.488 114.747,214.590 120.652,214.949 122.446 C 215.237 123.885,213.739 125.760,211.787 126.404 C 211.024 126.656,210.400 127.001,210.400 127.170 C 210.400 127.340,209.725 127.774,208.900 128.134 C 208.075 128.494,206.680 129.211,205.800 129.727 C 203.108 131.304,201.075 132.492,199.400 133.468 C 198.520 133.981,197.170 134.690,196.400 135.045 C 195.630 135.400,194.910 135.829,194.800 136.000 C 194.690 136.171,193.970 136.607,193.200 136.969 C 192.430 137.332,191.080 138.071,190.200 138.613 C 189.320 139.155,187.880 139.973,187.000 140.433 C 186.120 140.892,184.680 141.695,183.800 142.219 C 182.920 142.742,181.480 143.561,180.600 144.039 C 179.720 144.517,178.910 145.018,178.800 145.154 C 178.690 145.289,177.522 145.940,176.205 146.600 C 174.888 147.260,172.908 148.360,171.805 149.044 C 168.541 151.070,168.245 151.079,166.036 149.230 C 164.965 148.333,163.899 147.600,163.667 147.600 C 163.435 147.600,162.638 147.242,161.896 146.804 C 161.154 146.366,158.970 145.732,157.043 145.396 C 141.538 142.693,129.267 157.647,134.770 172.540 C 136.018 175.916,140.482 181.600,141.886 181.600 C 142.169 181.600,142.400 181.743,142.400 181.917 C 142.400 182.092,143.703 182.857,145.295 183.617 C 149.659 185.701,158.003 185.727,162.008 183.668 C 166.113 181.558,166.559 181.281,167.289 180.385 C 168.040 179.462,168.944 179.562,170.792 180.772 C 172.608 181.961,173.379 182.387,174.900 183.041 C 175.725 183.396,176.400 183.820,176.400 183.983 C 176.400 184.145,177.075 184.583,177.900 184.955 C 179.944 185.877,181.919 187.006,182.728 187.716 C 183.097 188.040,183.850 188.438,184.400 188.600 C 184.950 188.762,185.670 189.131,186.001 189.419 C 186.331 189.708,187.051 190.139,187.601 190.377 C 188.800 190.897,192.119 192.821,192.400 193.160 C 192.510 193.292,193.950 194.089,195.600 194.930 C 197.250 195.771,200.040 197.341,201.800 198.420 C 203.560 199.498,205.270 200.488,205.600 200.619 C 205.930 200.751,206.560 201.062,207.000 201.310 C 207.440 201.558,208.406 202.077,209.148 202.462 C 209.889 202.847,210.789 203.420,211.148 203.734 C 211.506 204.048,212.210 204.430,212.711 204.583 C 214.364 205.087,214.891 206.498,215.024 210.775 C 215.124 214.033,215.328 215.121,216.173 216.907 C 216.738 218.100,217.200 219.222,217.200 219.398 C 217.200 219.575,218.005 220.697,218.990 221.893 C 228.509 233.456,244.892 232.244,252.727 219.397 C 257.986 210.776,253.592 195.052,245.062 191.968 C 244.258 191.677,243.600 191.310,243.600 191.152 C 243.600 190.605,238.031 189.600,235.000 189.600 C 231.873 189.600,226.400 190.611,226.400 191.189 C 226.400 191.367,225.980 191.619,225.466 191.748 C 224.953 191.876,223.843 192.530,223.000 193.200 C 220.491 195.194,220.115 195.155,215.110 192.386 C 212.630 191.014,210.330 189.667,210.000 189.393 C 209.670 189.119,208.950 188.762,208.400 188.600 C 207.850 188.438,207.106 188.048,206.748 187.734 C 206.150 187.210,205.062 186.584,201.800 184.887 C 201.140 184.544,200.510 184.159,200.400 184.031 C 200.290 183.904,199.570 183.481,198.800 183.092 C 198.030 182.702,196.680 181.945,195.800 181.409 C 194.920 180.873,193.480 180.059,192.600 179.600 C 191.720 179.141,190.280 178.329,189.400 177.795 C 188.520 177.261,187.125 176.530,186.300 176.169 C 185.475 175.808,184.800 175.380,184.800 175.217 C 184.800 175.055,184.125 174.620,183.300 174.252 C 182.475 173.884,181.080 173.137,180.200 172.593 C 179.320 172.048,177.841 171.236,176.914 170.789 C 174.502 169.625,174.189 168.989,174.238 165.351 C 174.292 161.281,174.497 160.741,176.300 159.902 C 177.125 159.518,178.520 158.769,179.400 158.236 C 180.280 157.703,181.720 156.892,182.600 156.433 C 183.480 155.973,184.920 155.156,185.800 154.616 C 186.680 154.076,188.120 153.264,189.000 152.811 C 189.880 152.359,191.320 151.556,192.200 151.028 C 193.080 150.500,194.520 149.692,195.400 149.233 C 196.280 148.773,197.720 147.961,198.600 147.426 C 199.480 146.892,200.740 146.171,201.400 145.824 C 202.060 145.477,203.500 144.669,204.600 144.028 C 205.700 143.386,207.275 142.558,208.100 142.187 C 208.925 141.817,209.600 141.370,209.600 141.196 C 209.600 141.021,210.095 140.683,210.700 140.444 C 211.305 140.206,212.700 139.480,213.800 138.831 C 220.028 135.159,220.401 135.093,222.951 137.200 C 224.016 138.080,225.155 138.800,225.482 138.800 C 225.809 138.800,226.644 139.205,227.338 139.700 C 228.520 140.543,229.003 140.600,235.000 140.600 C 240.997 140.600,241.480 140.543,242.662 139.700 C 243.356 139.205,244.122 138.800,244.365 138.800 C 245.347 138.800,249.809 135.167,251.150 133.275 C 262.364 117.461,249.392 97.642,230.200 101.267 M242.486 102.600 C 243.295 103.150,244.166 103.600,244.421 103.600 C 244.676 103.600,245.419 104.050,246.073 104.600 C 246.727 105.150,247.518 105.600,247.831 105.600 C 248.144 105.600,248.400 105.851,248.400 106.157 C 248.400 106.464,248.652 106.811,248.960 106.929 C 249.442 107.114,250.301 108.322,252.706 112.200 C 253.980 114.254,254.136 115.196,254.136 120.800 C 254.136 126.230,253.991 127.193,252.866 129.200 C 252.681 129.530,252.275 130.264,251.965 130.831 C 250.693 133.152,249.812 134.260,248.332 135.400 C 247.475 136.060,246.259 137.005,245.629 137.500 C 245.000 137.995,244.220 138.400,243.896 138.400 C 243.573 138.400,242.793 138.805,242.164 139.300 C 241.092 140.143,240.637 140.200,235.000 140.200 C 229.363 140.200,228.908 140.143,227.836 139.300 C 227.207 138.805,226.332 138.400,225.892 138.400 C 225.452 138.400,224.689 137.995,224.197 137.500 C 221.363 134.651,219.774 134.121,218.507 135.600 C 218.130 136.040,217.516 136.400,217.142 136.400 C 216.768 136.400,215.927 136.850,215.273 137.400 C 214.619 137.950,213.820 138.400,213.496 138.400 C 213.173 138.400,212.455 138.756,211.901 139.192 C 211.347 139.628,210.468 140.177,209.947 140.413 C 209.426 140.648,208.280 141.281,207.400 141.818 C 206.520 142.355,205.173 143.086,204.407 143.441 C 203.640 143.797,202.581 144.429,202.053 144.844 C 201.524 145.260,200.756 145.600,200.346 145.600 C 199.936 145.600,199.600 145.786,199.600 146.014 C 199.600 146.242,198.835 146.785,197.900 147.220 C 196.965 147.655,195.480 148.453,194.600 148.992 C 193.720 149.531,192.446 150.238,191.768 150.563 C 191.091 150.888,190.304 151.434,190.019 151.777 C 189.735 152.120,189.178 152.400,188.782 152.400 C 188.386 152.400,187.553 152.823,186.931 153.339 C 186.309 153.856,185.305 154.399,184.700 154.547 C 184.095 154.694,183.600 154.970,183.600 155.159 C 183.600 155.348,183.015 155.740,182.300 156.029 C 181.084 156.522,180.503 156.863,177.700 158.734 C 177.095 159.138,176.136 159.584,175.569 159.725 C 172.517 160.483,172.800 169.810,175.905 170.835 C 176.668 171.087,177.632 171.632,178.046 172.046 C 178.461 172.461,179.089 172.800,179.442 172.800 C 179.795 172.800,180.619 173.250,181.273 173.800 C 181.927 174.350,182.748 174.800,183.099 174.800 C 183.450 174.800,184.067 175.099,184.471 175.464 C 185.305 176.219,186.302 176.829,188.600 177.991 C 189.480 178.436,190.549 179.070,190.976 179.400 C 191.404 179.730,192.008 180.000,192.319 180.000 C 192.630 180.000,193.419 180.450,194.073 181.000 C 194.727 181.550,195.496 182.000,195.782 182.000 C 196.068 182.000,196.489 182.226,196.718 182.501 C 196.947 182.777,198.364 183.626,199.867 184.387 C 201.370 185.149,202.691 185.897,202.801 186.050 C 202.912 186.203,203.767 186.633,204.701 187.007 C 205.636 187.381,206.400 187.833,206.400 188.012 C 206.400 188.191,207.029 188.545,207.797 188.799 C 208.565 189.053,209.330 189.472,209.497 189.730 C 209.664 189.989,210.430 190.514,211.200 190.898 C 212.528 191.559,213.071 191.856,214.700 192.810 C 215.085 193.035,216.158 193.581,217.083 194.021 C 218.009 194.462,218.875 194.998,219.007 195.211 C 219.613 196.192,222.036 195.146,224.329 192.914 C 224.619 192.632,225.090 192.400,225.375 192.400 C 225.659 192.400,226.407 191.995,227.036 191.500 C 228.795 190.116,241.203 190.116,242.963 191.500 C 243.593 191.995,244.309 192.403,244.554 192.407 C 245.141 192.417,247.946 194.338,249.204 195.593 C 250.331 196.716,250.833 197.485,251.996 199.868 C 252.443 200.786,252.983 201.596,253.196 201.668 C 254.345 202.060,254.666 214.011,253.593 216.494 C 252.779 218.379,250.144 222.339,248.894 223.557 C 247.283 225.126,244.430 227.200,243.881 227.200 C 243.600 227.200,242.656 227.585,241.785 228.056 C 239.700 229.183,230.132 229.388,228.918 228.332 C 228.523 227.988,227.660 227.582,227.000 227.428 C 223.952 226.720,218.088 221.087,217.356 218.166 C 217.196 217.525,216.736 216.460,216.334 215.800 C 215.759 214.857,215.603 213.771,215.601 210.726 C 215.600 206.069,215.280 205.089,213.534 204.393 C 212.800 204.100,211.878 203.532,211.484 203.131 C 211.091 202.729,210.442 202.400,210.043 202.400 C 209.644 202.400,208.831 201.950,208.238 201.400 C 207.644 200.850,206.830 200.400,206.428 200.400 C 206.027 200.400,205.465 200.120,205.181 199.777 C 204.896 199.434,204.109 198.893,203.432 198.574 C 202.754 198.255,201.480 197.553,200.600 197.014 C 199.720 196.475,198.255 195.681,197.344 195.250 C 196.433 194.819,195.576 194.285,195.439 194.064 C 195.303 193.843,194.654 193.544,193.998 193.400 C 193.342 193.255,192.669 192.909,192.502 192.629 C 192.191 192.105,191.019 191.412,188.144 190.050 C 187.233 189.619,186.376 189.085,186.239 188.864 C 186.103 188.643,185.441 188.341,184.768 188.193 C 184.096 188.045,183.450 187.673,183.332 187.367 C 183.214 187.060,182.416 186.620,181.559 186.389 C 180.701 186.158,180.000 185.787,180.000 185.564 C 180.000 185.341,179.415 184.883,178.700 184.545 C 177.225 183.848,175.636 182.955,173.600 181.680 C 172.830 181.198,171.975 180.802,171.700 180.801 C 171.425 180.801,170.840 180.440,170.400 180.000 C 169.960 179.560,169.152 179.200,168.603 179.200 C 168.040 179.200,167.390 179.548,167.107 180.000 C 166.832 180.440,166.416 180.800,166.181 180.800 C 165.947 180.800,165.145 181.250,164.400 181.800 C 163.655 182.350,162.744 182.800,162.376 182.800 C 162.009 182.800,161.195 183.204,160.568 183.697 C 158.724 185.147,149.059 184.990,146.232 183.463 C 145.150 182.878,144.025 182.400,143.732 182.400 C 143.439 182.400,143.200 182.232,143.200 182.027 C 143.200 181.822,142.851 181.543,142.424 181.408 C 141.438 181.095,137.200 176.879,137.200 176.210 C 137.200 175.934,136.863 175.279,136.452 174.754 C 136.041 174.229,135.574 173.203,135.414 172.473 C 135.255 171.743,134.887 170.688,134.596 170.128 C 132.882 166.824,133.964 159.684,136.970 154.465 C 137.681 153.231,143.126 148.000,143.699 148.000 C 143.946 148.000,144.884 147.643,145.785 147.207 C 149.280 145.515,159.344 145.511,161.491 147.200 C 162.012 147.610,162.969 148.061,163.619 148.204 C 164.268 148.347,164.800 148.635,164.800 148.844 C 164.800 149.054,165.115 149.341,165.500 149.483 C 165.885 149.624,166.586 150.147,167.057 150.644 C 168.020 151.660,169.162 151.565,170.754 150.336 C 171.279 149.931,171.954 149.600,172.254 149.600 C 172.554 149.600,172.800 149.428,172.800 149.219 C 172.800 149.009,173.587 148.489,174.548 148.064 C 175.510 147.639,176.421 147.090,176.572 146.845 C 176.723 146.600,177.187 146.400,177.603 146.400 C 178.019 146.400,178.844 145.950,179.438 145.400 C 180.031 144.850,180.823 144.400,181.196 144.400 C 181.570 144.400,182.187 144.056,182.567 143.636 C 182.948 143.216,183.700 142.761,184.240 142.626 C 184.779 142.490,185.576 142.024,186.010 141.590 C 186.445 141.155,187.132 140.800,187.538 140.800 C 187.944 140.800,188.602 140.440,189.000 140.000 C 189.398 139.560,189.952 139.200,190.231 139.200 C 190.510 139.200,191.273 138.750,191.927 138.200 C 192.581 137.650,193.380 137.200,193.704 137.200 C 194.027 137.200,194.721 136.878,195.246 136.484 C 195.771 136.090,196.650 135.554,197.200 135.293 C 197.750 135.032,198.920 134.367,199.800 133.816 C 200.680 133.265,202.061 132.527,202.869 132.176 C 203.677 131.825,204.430 131.299,204.542 131.007 C 204.654 130.714,205.296 130.355,205.968 130.207 C 206.641 130.059,207.303 129.757,207.439 129.536 C 207.576 129.315,208.433 128.778,209.344 128.342 C 215.289 125.502,215.600 125.085,215.600 119.957 C 215.600 116.754,215.756 115.664,216.385 114.479 C 216.816 113.666,217.270 112.505,217.392 111.900 C 217.699 110.389,224.224 103.817,225.800 103.431 C 226.460 103.270,227.270 102.900,227.600 102.610 C 229.253 101.157,240.351 101.149,242.486 102.600 M232.100 111.991 C 231.605 112.202,231.200 112.548,231.200 112.760 C 231.200 112.972,230.826 113.265,230.368 113.410 C 229.413 113.713,227.204 115.903,227.191 116.559 C 227.186 116.802,226.830 117.450,226.400 118.000 C 225.888 118.655,225.618 119.621,225.618 120.800 C 225.618 121.979,225.888 122.945,226.400 123.600 C 226.830 124.150,227.186 124.808,227.191 125.061 C 227.202 125.638,229.617 128.400,230.111 128.400 C 230.310 128.400,230.931 128.760,231.491 129.200 C 232.908 130.315,237.165 130.344,238.158 129.246 C 238.534 128.831,239.328 128.394,239.923 128.275 C 242.860 127.688,245.607 118.287,243.264 116.839 C 242.969 116.657,242.519 116.093,242.264 115.585 C 240.869 112.810,235.029 110.745,232.100 111.991 M239.063 113.458 C 242.864 115.686,245.023 121.871,242.892 124.425 C 242.628 124.741,241.969 125.554,241.428 126.232 C 237.283 131.419,229.409 129.968,227.066 123.587 C 224.441 116.437,232.515 109.621,239.063 113.458 M151.180 156.324 C 150.619 156.476,149.899 156.818,149.580 157.085 C 146.440 159.712,145.582 160.687,145.358 161.885 C 145.221 162.613,144.950 163.307,144.755 163.428 C 144.195 163.774,144.341 166.195,144.998 167.454 C 145.326 168.084,145.601 168.870,145.609 169.200 C 145.689 172.567,154.239 175.844,157.091 173.600 C 157.650 173.160,158.332 172.800,158.606 172.800 C 158.880 172.800,159.800 171.950,160.652 170.911 L 162.200 169.021 162.200 165.197 C 162.200 158.809,157.119 154.717,151.180 156.324 M157.700 157.806 C 166.741 162.860,159.712 177.640,150.474 173.000 C 145.437 170.470,143.422 163.513,146.801 160.322 C 147.195 159.950,147.582 159.500,147.659 159.322 C 148.706 156.926,154.547 156.044,157.700 157.806 M232.468 200.663 C 231.955 200.774,231.208 201.165,230.806 201.532 C 230.405 201.899,229.597 202.532,229.012 202.938 C 228.427 203.344,227.742 204.154,227.490 204.738 C 227.238 205.322,226.710 206.229,226.316 206.754 C 225.312 208.091,225.357 211.184,226.400 212.509 C 226.840 213.069,227.200 213.688,227.200 213.885 C 227.200 217.154,235.372 219.956,238.682 217.821 C 241.029 216.308,242.400 215.177,242.400 214.753 C 242.400 214.541,242.781 213.853,243.246 213.224 C 243.971 212.243,244.069 211.659,243.931 209.140 C 243.605 203.155,238.482 199.367,232.468 200.663 M239.479 202.454 C 245.487 206.588,244.810 213.976,238.113 217.349 C 236.023 218.402,234.092 218.694,233.380 218.064 C 233.171 217.879,232.370 217.479,231.600 217.175 C 228.651 216.011,226.076 211.909,226.517 209.079 C 227.590 202.187,234.188 198.814,239.479 202.454 M0.000 291.200 C 0.000 291.640,0.249 292.000,0.553 292.000 C 1.136 292.000,1.585 293.174,1.595 294.719 C 1.616 298.324,9.383 308.905,13.800 311.347 C 14.460 311.712,15.270 312.173,15.600 312.372 C 17.384 313.449,20.487 314.800,21.178 314.800 C 21.614 314.800,22.884 315.160,24.000 315.600 C 26.007 316.391,26.973 316.400,109.566 316.400 C 180.441 316.400,193.172 316.484,193.564 316.957 C 194.341 317.893,193.989 361.910,193.200 362.409 C 192.834 362.640,178.481 362.795,156.400 362.806 L 120.200 362.823 118.843 364.057 C 115.313 367.266,117.058 372.915,121.889 373.913 C 125.255 374.608,275.383 374.621,278.393 373.926 C 282.948 372.874,284.618 366.951,281.187 364.018 L 279.800 362.833 243.600 362.810 C 223.690 362.798,207.173 362.644,206.897 362.468 C 206.500 362.216,206.415 357.329,206.497 339.374 L 206.600 316.600 290.800 316.400 C 369.914 316.212,375.090 316.158,376.487 315.500 C 377.305 315.115,378.345 314.800,378.799 314.800 C 379.510 314.800,382.896 313.282,386.458 311.366 C 387.840 310.622,394.216 304.254,394.962 302.872 C 396.917 299.250,398.328 295.877,398.573 294.239 C 398.731 293.189,399.110 292.256,399.428 292.134 C 400.178 291.846,400.170 290.400,399.419 290.400 C 398.772 290.400,398.006 292.698,398.002 294.646 C 398.001 295.331,397.667 296.321,397.261 296.846 C 396.855 297.371,396.393 298.326,396.236 298.968 C 396.079 299.611,395.602 300.580,395.175 301.122 C 394.749 301.664,394.400 302.333,394.400 302.608 C 394.400 303.245,386.867 310.800,386.232 310.800 C 385.970 310.800,385.145 311.250,384.400 311.800 C 383.655 312.350,382.802 312.800,382.506 312.800 C 382.210 312.800,381.480 313.142,380.884 313.560 C 380.288 313.978,378.852 314.419,377.693 314.542 C 376.535 314.664,375.190 315.042,374.704 315.382 C 373.915 315.935,364.983 316.000,290.340 316.000 C 214.115 316.000,206.801 316.056,206.213 316.644 C 205.122 317.735,205.471 361.824,206.576 362.632 C 207.233 363.113,212.879 363.200,243.199 363.200 L 279.045 363.200 280.398 364.198 C 284.317 367.090,282.959 372.423,278.100 373.219 C 275.328 373.673,124.685 373.698,121.937 373.245 C 117.342 372.488,115.873 367.095,119.501 364.300 L 120.929 363.200 157.036 363.200 C 189.327 363.200,193.209 363.134,193.771 362.571 C 194.852 361.491,194.712 316.995,193.626 316.414 C 193.100 316.133,166.237 315.996,109.726 315.986 C 28.407 315.973,26.565 315.956,25.000 315.200 C 24.120 314.775,22.749 314.421,21.954 314.414 C 21.159 314.406,20.079 314.063,19.554 313.652 C 19.029 313.241,18.034 312.781,17.341 312.629 C 16.649 312.478,15.766 312.005,15.379 311.577 C 14.993 311.150,14.410 310.800,14.084 310.800 C 13.758 310.800,13.093 310.395,12.606 309.900 C 12.119 309.405,10.701 308.010,9.455 306.800 C 5.861 303.310,5.600 303.008,5.600 302.335 C 5.600 301.985,5.339 301.482,5.020 301.217 C 4.702 300.952,4.229 300.075,3.970 299.268 C 3.711 298.461,3.264 297.529,2.976 297.198 C 2.689 296.867,2.326 295.607,2.170 294.398 C 1.723 290.938,0.000 288.398,0.000 291.200 " stroke="none" fill="#747474" fill-rule="evenodd"></path></g></svg>